<?xml version="1.0" standalone="no"?>
<!DOCTYPE svg PUBLIC "-//W3C//DTD SVG 20010904//EN"
 "http://www.w3.org/TR/2001/REC-SVG-20010904/DTD/svg10.dtd">
<svg version="1.0" xmlns="http://www.w3.org/2000/svg"
 width="1080.000000pt" height="1080.000000pt" viewBox="0 0 1080.000000 1080.000000"
 preserveAspectRatio="xMidYMid meet">

<g transform="translate(0.000000,1080.000000) scale(0.100000,-0.100000)"
fill="#000000" stroke="none">
<path d="M5177 10269 c-16 -4 -34 -12 -40 -17 -21 -17 -80 -26 -152 -23 -116
4 -225 -57 -225 -126 0 -37 -13 -69 -52 -132 -18 -28 -28 -59 -28 -82 0 -27
-6 -42 -21 -53 -13 -9 -18 -19 -13 -28 4 -7 4 -10 -1 -6 -4 4 -20 -2 -36 -12
-28 -20 -53 -97 -42 -127 3 -8 -2 -13 -12 -13 -17 0 -17 -12 -11 -160 4 -89
11 -173 15 -188 7 -23 30 -50 111 -128 68 -66 87 -118 101 -278 7 -91 7 -113
-6 -132 -16 -24 -14 -35 15 -99 10 -22 23 -70 28 -107 12 -83 71 -235 93 -241
8 -2 37 -35 63 -72 36 -50 45 -69 36 -75 -18 -11 -105 -19 -159 -15 -79 5
-211 -85 -226 -156 -7 -29 21 -95 49 -118 9 -8 16 -18 16 -24 0 -5 8 -17 18
-26 17 -15 52 -80 52 -96 0 -4 -7 -5 -14 -2 -10 4 -13 1 -10 -7 5 -13 -10 -34
-78 -108 -21 -23 -38 -48 -38 -57 0 -9 -11 -23 -24 -31 -56 -34 -264 -250
-260 -269 1 -3 4 -18 8 -32 5 -25 1 -29 -52 -55 -140 -69 -216 -121 -267 -184
-11 -14 -29 -32 -40 -42 -18 -14 -21 -15 -34 -1 -12 13 -11 14 7 9 11 -4 23
-3 26 2 5 9 -116 33 -177 35 -22 1 -32 4 -24 9 8 5 9 8 0 8 -6 0 -29 17 -51
39 -22 22 -54 42 -73 46 -19 4 -39 11 -45 16 -6 5 -32 12 -57 15 -35 5 -50 3
-62 -10 -30 -30 -63 -18 -122 44 -90 95 -136 140 -142 140 -13 1 -52 50 -62
78 -5 16 -21 34 -35 41 -14 6 -23 15 -20 20 10 15 -30 42 -82 56 -42 11 -58
11 -94 0 -24 -8 -55 -16 -70 -19 -16 -4 -28 -13 -28 -21 0 -8 -7 -15 -17 -15
-9 0 -31 -17 -49 -38 -32 -38 -34 -39 -96 -37 -71 2 -181 28 -186 44 -4 13
-82 15 -82 3 0 -21 -77 -31 -175 -23 -103 8 -171 29 -181 55 -3 9 -22 18 -42
22 -56 9 -130 34 -134 45 -2 5 -35 11 -73 14 -39 2 -106 11 -150 20 -44 8
-107 18 -140 21 -36 4 -77 16 -103 31 -23 14 -49 23 -56 20 -8 -3 -43 13 -78
36 -34 24 -90 51 -123 62 -33 11 -65 26 -70 33 -7 9 -42 14 -103 16 l-93 2
-39 40 c-22 21 -39 45 -40 52 0 10 -13 13 -47 11 -34 -2 -60 3 -88 18 -22 11
-64 24 -92 28 -29 4 -55 11 -59 16 -3 5 -14 9 -24 9 -11 0 -25 12 -32 28 -7
15 -22 28 -33 28 -11 1 -29 2 -41 3 -11 1 -36 15 -54 31 l-34 30 -148 -2 -148
-3 0 -1182 0 -1183 29 0 c16 0 36 -3 45 -6 13 -5 16 2 16 37 0 29 -3 39 -9 30
-5 -7 -11 -9 -14 -5 -8 15 11 54 30 61 10 3 25 12 33 19 8 7 39 14 69 15 44 2
50 5 37 15 -15 11 -15 12 0 18 25 9 64 7 64 -4 0 -5 -5 -10 -12 -10 -6 0 -8
-3 -4 -7 4 -5 13 -8 19 -8 17 0 21 -76 5 -86 -10 -7 -10 -9 0 -9 25 0 11 -19
-24 -30 -27 -9 -38 -9 -43 -1 -10 16 -39 4 -46 -19 -3 -10 -12 -21 -20 -24 -8
-3 -15 -12 -15 -21 0 -8 -7 -15 -15 -15 -9 0 -15 -9 -15 -23 0 -13 -9 -32 -19
-41 -12 -11 -19 -30 -19 -48 1 -16 -3 -33 -9 -36 -13 -10 -40 -66 -48 -103 -4
-17 -12 -28 -19 -26 -14 5 -9 -61 5 -79 10 -13 2 -44 -12 -44 -5 0 -9 -186 -9
-435 0 -398 3 -460 24 -427 3 5 7 50 10 100 8 150 10 156 63 170 36 10 51 10
74 0 43 -19 47 -54 33 -257 -2 -40 -12 -77 -24 -99 -11 -18 -29 -67 -40 -108
-11 -41 -27 -93 -36 -117 -8 -23 -18 -50 -21 -60 -3 -9 -10 -17 -17 -17 -6 0
-23 -13 -39 -29 l-27 -29 0 -261 c0 -181 3 -261 11 -261 6 0 29 -15 52 -34 23
-19 61 -40 85 -48 23 -7 42 -18 42 -24 0 -6 7 -25 16 -43 13 -26 14 -49 9
-127 -7 -86 -10 -100 -36 -129 -16 -18 -29 -41 -29 -52 0 -52 -53 -56 -99 -8
-18 19 -37 35 -42 35 -5 0 -9 -505 -9 -1237 0 -1024 2 -1239 13 -1252 8 -9 21
-36 31 -59 16 -42 16 -45 -5 -78 -11 -19 -25 -34 -30 -34 -5 0 -9 -24 -8 -52
0 -38 8 -67 28 -103 15 -27 32 -50 37 -49 5 0 26 4 47 8 32 7 42 5 62 -14 15
-14 27 -39 31 -66 l6 -44 184 0 184 0 6 25 c8 32 -3 127 -21 180 -7 22 -33 83
-58 135 -49 105 -75 173 -80 207 -2 12 -6 26 -10 29 -4 4 -7 19 -7 33 0 30
-31 93 -62 125 -32 33 -48 80 -48 140 0 73 18 85 93 60 29 -9 57 -20 62 -24
14 -10 84 -27 183 -45 94 -17 126 -34 141 -76 12 -36 6 -56 -28 -88 -26 -25
-26 -25 -29 -214 -2 -113 0 -199 6 -211 6 -12 15 -39 21 -61 5 -22 17 -64 25
-94 11 -39 13 -64 7 -88 l-9 -33 258 0 c162 0 261 4 265 10 8 13 45 13 45 0 0
-6 35 -10 84 -10 l84 0 -2 32 c-1 23 4 33 16 36 20 4 78 -36 78 -55 0 -10 36
-13 165 -13 91 0 165 2 165 3 0 5 -37 115 -57 170 -10 27 -22 50 -28 50 -5 1
-13 -24 -16 -55 -6 -56 -21 -88 -41 -88 -27 0 -76 34 -92 64 -17 33 -17 34 3
72 12 22 27 47 34 57 10 14 7 26 -17 68 -25 44 -28 58 -22 102 3 28 11 56 18
63 24 23 109 21 148 -4 19 -12 42 -22 50 -22 8 0 60 -22 115 -50 55 -27 108
-50 119 -50 10 0 35 -10 56 -21 41 -23 70 -79 70 -132 0 -15 11 -50 25 -77 14
-27 25 -60 25 -74 0 -14 4 -36 10 -50 l10 -26 225 0 225 0 0 36 c0 20 -10 52
-21 71 -18 28 -20 39 -10 59 18 40 51 35 318 -40 51 -14 107 -26 126 -26 18 0
52 -9 75 -20 23 -11 56 -23 73 -27 17 -3 37 -16 46 -29 l15 -24 305 0 305 0
-6 38 c-3 20 -8 64 -12 96 -4 32 -13 71 -20 85 -18 33 -18 81 -1 81 7 0 19 10
27 21 33 48 62 79 70 74 4 -3 6 4 3 15 -3 11 0 20 6 20 6 0 11 11 11 25 0 14
-4 25 -9 25 -5 0 -7 8 -4 18 5 22 -36 62 -69 66 -13 1 -33 9 -45 17 -22 15
-53 69 -53 92 0 8 -7 20 -15 27 -8 7 -15 21 -15 31 0 11 -3 19 -7 19 -5 0 -13
11 -20 25 -9 20 -8 25 2 25 8 0 17 -5 20 -10 9 -15 73 -40 102 -40 43 0 92 27
99 55 5 21 0 33 -21 55 -25 26 -27 33 -17 55 19 41 14 69 -16 98 -49 47 -67
33 -32 -25 27 -44 25 -66 -4 -74 -45 -11 -91 13 -111 56 -17 37 -17 41 -2 58
31 34 21 59 -30 82 -27 12 -62 31 -80 43 -31 21 -32 23 -27 82 5 61 28 169 46
217 10 27 39 44 56 34 5 -3 12 -47 15 -98 6 -96 29 -185 52 -204 21 -16 71 -5
96 22 12 13 27 24 33 24 14 -1 94 -165 112 -232 8 -29 17 -78 20 -108 3 -30 9
-59 14 -64 5 -5 6 -21 3 -37 -3 -17 1 -36 10 -49 9 -12 13 -28 10 -36 -3 -7 7
-37 21 -66 18 -36 26 -68 26 -104 0 -29 5 -56 10 -59 6 -3 10 -29 10 -56 0
-46 -1 -49 -24 -45 -13 2 -35 16 -50 31 -30 30 -69 31 -74 2 -2 -10 13 -44 33
-74 22 -33 35 -63 32 -74 -3 -12 3 -25 18 -36 13 -10 26 -27 29 -38 5 -17 1
-21 -23 -23 -37 -3 -112 -34 -128 -53 -8 -10 -8 -26 0 -61 l12 -48 1876 0
1876 0 7 83 c4 45 8 102 10 127 2 25 6 75 11 112 10 93 1 136 -33 150 -62 25
-78 34 -102 59 -16 17 -41 29 -69 34 -24 4 -51 15 -60 24 -9 9 -28 15 -43 13
-15 -2 -37 2 -49 8 -11 7 -48 16 -81 20 -65 10 -72 13 -82 47 -7 21 -6 21 41
6 79 -25 89 -26 108 -6 10 10 27 22 38 28 11 5 26 27 33 48 7 21 23 51 34 67
11 16 31 53 44 82 28 64 40 75 92 86 47 10 52 34 9 42 -23 4 -29 10 -27 25 5
25 40 75 53 75 6 0 30 14 54 30 40 28 50 30 113 28 66 -3 72 -1 124 35 l54 37
108 0 c59 0 127 -5 152 -11 38 -10 52 -9 103 10 32 11 72 21 90 21 47 0 158
29 218 56 28 13 56 24 62 24 5 0 11 4 13 10 2 5 39 15 82 21 44 6 97 19 118
30 24 12 58 19 96 19 48 0 62 4 80 23 17 18 19 25 8 39 -7 10 -27 19 -45 20
-17 1 -38 9 -46 18 -17 19 -22 114 -7 150 9 24 8 26 -17 28 -17 1 -42 -8 -62
-23 -19 -13 -48 -32 -66 -41 -17 -10 -48 -41 -69 -71 -20 -29 -41 -53 -46 -53
-16 0 -57 48 -64 75 -5 19 -1 35 14 55 l21 28 -41 6 c-48 8 -58 -2 -83 -82
-41 -128 -148 -152 -161 -36 -7 55 8 104 31 104 8 0 15 4 15 9 0 5 9 11 20 14
25 6 27 44 2 51 -10 3 -43 7 -75 7 -45 1 -58 5 -62 19 -9 27 -50 50 -98 54
-59 5 -95 21 -141 64 -23 21 -57 48 -77 60 -49 29 -55 64 -26 140 32 83 59
115 89 103 12 -5 47 -12 75 -16 29 -4 64 -16 77 -26 22 -17 35 -19 100 -13 65
6 79 4 103 -12 41 -27 82 -44 110 -44 13 0 33 -9 45 -20 31 -29 80 -35 119
-16 41 20 45 20 71 -4 15 -14 36 -20 65 -20 24 0 43 2 43 5 0 2 -22 14 -50 27
-27 13 -50 28 -50 34 0 29 -39 40 -142 43 -45 1 -49 4 -74 43 -32 51 -92 109
-100 97 -3 -5 -34 -9 -68 -9 l-63 0 -49 56 c-64 74 -69 86 -57 137 9 44 0 97
-18 97 -5 0 -9 7 -9 16 0 11 -6 15 -20 11 -15 -4 -22 1 -26 18 -10 42 10 62
63 64 26 0 63 5 81 10 34 10 62 6 62 -10 0 -5 16 -9 35 -9 22 0 34 -4 33 -12
-3 -15 65 -12 70 3 5 14 22 11 22 -4 0 -19 29 -76 54 -104 27 -31 112 -74 131
-67 10 4 15 20 15 43 0 31 5 40 25 49 32 15 95 16 95 2 0 -5 23 -10 50 -10 28
0 58 -4 68 -9 9 -5 78 -14 152 -20 190 -15 201 -15 207 9 3 11 12 20 19 20 9
0 14 12 14 38 0 20 9 55 19 77 13 31 16 49 9 78 -5 21 -6 42 -3 48 4 5 0 9 -8
9 -26 0 -48 37 -52 91 -3 30 -3 48 1 41 3 -6 10 -10 15 -6 14 8 11 24 -6 24
-11 0 -16 12 -17 43 -3 69 9 140 23 132 4 -3 16 6 25 20 13 19 15 37 10 73 -3
26 -11 49 -16 50 -6 2 -10 17 -10 33 0 16 -4 29 -9 29 -4 0 -8 10 -7 21 1 30
91 58 113 36 17 -16 36 -94 28 -108 -4 -5 -1 -9 4 -9 6 0 11 -8 11 -17 0 -10
7 -27 15 -37 8 -11 15 -28 15 -37 0 -28 22 -69 37 -69 7 0 13 -4 13 -10 0 -18
18 -10 47 20 22 24 36 30 70 30 31 0 43 -4 43 -14 0 -8 9 -30 20 -49 19 -32
24 -34 77 -36 83 -2 126 43 65 68 -15 6 -43 25 -62 41 -19 17 -39 30 -44 30
-15 0 1 109 19 126 11 11 25 14 46 10 38 -7 51 -21 70 -71 14 -37 17 -40 59
-43 64 -4 70 -8 70 -39 0 -16 8 -36 18 -44 9 -9 28 -30 42 -48 14 -17 30 -31
36 -31 20 0 26 -33 9 -49 -10 -10 -36 -16 -73 -17 -74 -1 -97 -9 -109 -37 -6
-13 -29 -30 -51 -39 -39 -15 -41 -15 -76 10 -24 17 -36 33 -36 49 0 12 -3 23
-7 23 -20 0 -103 -48 -108 -62 -6 -16 -11 -19 -30 -18 -3 1 -13 -7 -22 -16
-12 -11 -13 -18 -4 -23 6 -4 13 -28 15 -54 3 -45 2 -48 -40 -79 -33 -25 -43
-39 -42 -59 2 -18 7 -25 18 -22 12 3 14 -5 12 -51 -3 -40 -8 -56 -18 -56 -17
0 -17 -8 1 -40 8 -14 14 -35 15 -47 0 -24 19 -41 29 -25 3 5 37 10 75 10 37 0
73 5 79 11 7 7 6 28 -3 69 -13 64 -7 102 16 102 8 0 14 7 14 15 0 18 14 19 32
2 7 -7 21 -16 32 -20 15 -6 17 -14 13 -45 -13 -84 -21 -102 -65 -148 -37 -37
-42 -46 -24 -42 13 4 20 2 16 -4 -9 -15 115 3 164 24 24 10 50 18 57 18 28 0
36 -68 9 -83 -8 -4 -14 -13 -14 -20 0 -7 -14 -21 -30 -32 -16 -11 -30 -25 -30
-31 0 -37 -79 -48 -126 -18 -22 15 -26 14 -58 -5 -55 -34 -77 -122 -27 -106
14 4 23 0 31 -15 6 -11 16 -20 22 -20 16 0 37 -32 38 -57 0 -29 15 -37 34 -17
18 17 38 11 30 -11 -8 -21 25 -125 42 -132 8 -3 21 0 29 7 10 8 55 13 128 14
101 2 117 4 142 24 15 12 33 22 39 22 6 1 24 11 40 24 25 21 28 28 22 60 -4
20 -11 36 -16 36 -6 0 -10 7 -10 15 0 8 -18 28 -39 43 -37 26 -53 56 -64 122
-3 14 -7 32 -11 40 -4 10 8 25 34 44 40 30 52 56 26 56 -7 0 -16 9 -19 20 -3
13 -14 20 -30 20 -13 0 -32 9 -41 19 -19 21 -14 41 9 41 16 0 23 18 17 43 -4
15 -11 18 -36 13 -100 -20 -120 -19 -151 8 -16 14 -36 26 -42 26 -15 0 -17 26
-3 35 6 4 8 11 4 16 -3 5 -9 7 -14 4 -14 -9 -19 9 -7 26 18 24 105 48 165 46
41 -2 57 2 66 16 7 9 17 17 22 17 11 1 74 57 74 67 0 5 15 15 32 23 30 15 34
15 89 -15 51 -26 62 -37 81 -82 23 -53 27 -56 86 -68 l32 -7 0 506 c0 278 -1
506 -3 506 -1 0 -17 -4 -36 -10 -37 -10 -44 -6 -76 45 -11 17 -25 34 -32 38
-7 4 -13 17 -13 27 0 28 -15 25 -28 -5 -12 -26 -22 -29 -58 -19 -23 6 -52 76
-34 82 6 2 10 9 10 16 0 7 9 21 19 30 17 16 24 16 55 5 25 -9 36 -19 36 -32 0
-29 98 60 99 90 1 12 6 33 12 46 8 17 8 35 0 63 -9 35 -16 41 -58 54 -38 13
-49 21 -51 40 -5 34 -17 47 -52 54 -35 6 -42 36 -9 36 21 0 21 3 14 72 -8 83
-10 88 -34 88 -10 0 -26 9 -35 19 -10 11 -24 17 -31 15 -7 -3 -24 6 -38 20
-15 14 -33 26 -42 26 -8 0 -15 5 -15 10 0 6 5 10 10 10 6 0 10 11 10 25 0 14
-4 25 -8 25 -4 0 -6 16 -4 35 2 19 8 35 13 35 5 0 9 5 9 10 0 6 -7 10 -15 10
-8 0 -15 8 -15 18 0 10 -15 23 -40 34 -32 13 -40 14 -40 3 0 -8 -7 -11 -20 -8
-23 6 -49 33 -31 33 17 0 13 56 -5 74 -14 15 -13 19 13 50 15 19 31 35 36 35
4 1 7 -17 7 -39 0 -23 5 -40 11 -40 6 0 20 -11 31 -25 25 -32 38 -32 38 0 0
18 -5 25 -20 25 -15 0 -20 7 -20 29 0 16 -6 32 -12 35 -10 5 -10 7 0 12 6 3
12 21 12 40 0 38 15 74 30 74 6 0 10 -7 10 -15 0 -12 16 -15 80 -15 l80 0 0
39 c0 33 4 40 23 44 21 3 21 4 3 12 -13 6 -21 5 -24 -3 -8 -25 -29 -10 -42 28
-7 22 -19 40 -27 40 -9 0 -13 14 -13 46 0 38 5 49 30 71 33 27 38 43 15 43
-19 0 -9 27 15 40 28 15 64 -70 77 -180 3 -25 9 -49 14 -54 5 -6 9 -18 9 -27
0 -10 6 -19 13 -22 10 -4 10 -7 0 -18 -19 -19 -16 -77 6 -107 10 -15 22 -46
26 -69 4 -27 12 -43 21 -43 8 0 14 -5 14 -11 0 -6 7 -18 16 -26 8 -9 13 -24
11 -35 -3 -11 2 -23 14 -31 16 -12 17 -20 10 -68 -5 -31 -5 -59 0 -65 5 -6 6
-14 3 -17 -3 -3 -3 -11 1 -17 6 -9 10 -9 16 1 5 8 9 348 9 757 l0 742 -32 -1
c-18 0 -54 -4 -80 -8 -41 -7 -53 -4 -88 16 -22 13 -40 28 -40 34 0 5 -66 9
-160 9 -100 0 -160 -4 -160 -10 0 -14 -77 -13 -82 1 -2 7 -51 12 -138 14 -104
3 -305 17 -328 24 -2 1 0 6 4 13 5 8 2 9 -11 4 -23 -9 -85 12 -85 28 0 15 -52
26 -129 26 -59 0 -153 22 -197 45 -23 12 -62 15 -179 15 -216 -2 -215 -2 -215
14 0 10 -19 16 -67 21 -38 3 -84 10 -103 15 -38 10 -86 16 -218 29 -48 4 -87
13 -92 20 -10 17 -83 26 -107 13 -17 -10 -19 -19 -15 -62 3 -33 1 -50 -7 -50
-6 0 -11 9 -11 19 0 11 -3 21 -7 23 -9 3 -42 97 -67 190 -9 31 -21 60 -26 63
-6 3 -10 20 -10 37 0 30 -28 88 -42 88 -10 0 -11 1 8 -54 9 -26 14 -49 11 -52
-5 -6 -21 26 -52 106 -9 25 -23 59 -30 76 -8 18 -17 48 -20 68 -4 20 -11 39
-16 42 -5 3 -9 14 -9 25 0 28 -28 80 -59 109 -15 14 -39 46 -54 72 -15 25 -46
60 -69 77 -24 16 -48 35 -55 40 -6 6 -31 20 -56 31 -25 12 -53 30 -63 41 -9
10 -23 19 -31 19 -7 0 -13 5 -13 10 0 6 -7 10 -17 10 -9 0 -28 12 -42 28 -34
36 -65 52 -98 52 -20 0 -24 3 -14 9 11 7 4 12 -24 20 -21 6 -42 8 -46 6 -4 -3
-20 1 -36 10 -15 8 -49 20 -75 27 -27 7 -48 18 -48 26 0 7 -5 10 -11 6 -11 -6
-99 34 -99 46 0 4 -18 12 -41 19 -22 7 -42 18 -45 26 -3 8 -26 22 -50 31 -24
9 -44 20 -44 23 0 4 -13 12 -30 18 -37 14 -38 30 -2 46 15 7 27 18 27 26 0 8
6 16 14 19 8 3 11 0 7 -7 -4 -6 -3 -11 3 -11 6 0 8 -7 5 -15 -4 -9 0 -15 10
-15 12 0 16 10 16 45 l0 45 -40 0 c-22 0 -40 -4 -40 -10 0 -5 7 -10 16 -10 8
0 12 -5 9 -10 -4 -6 -10 -8 -15 -5 -4 3 -6 -5 -3 -17 3 -16 2 -19 -5 -10 -7
11 -17 10 -53 -2 -28 -10 -47 -12 -53 -6 -6 6 -20 10 -32 10 -27 0 -66 36 -94
86 -37 68 -65 112 -85 134 -13 14 -19 37 -20 70 -1 36 -7 56 -23 73 -12 13
-22 28 -22 34 0 6 -11 21 -25 34 -14 13 -33 37 -41 53 -9 16 -30 44 -47 63
-27 30 -36 34 -64 28 -32 -6 -33 -6 -26 27 3 18 12 45 19 60 23 45 17 75 -22
110 -20 18 -49 45 -65 61 -16 15 -37 27 -49 27 -11 0 -20 5 -20 10 0 6 8 10
17 10 12 0 7 8 -17 29 -41 34 -46 30 -55 -54 -4 -33 -12 -65 -17 -72 -11 -14
-105 -43 -138 -43 -35 0 -99 -39 -185 -115 -44 -38 -82 -72 -85 -75 -18 -19
-66 -41 -116 -54 -72 -18 -160 -9 -221 22 -42 22 -43 23 -43 75 l0 52 48 15
c43 15 47 19 47 48 1 26 -5 35 -27 45 -15 6 -28 15 -28 19 0 5 -15 8 -34 8
-23 0 -39 7 -48 19 -7 10 -22 21 -33 24 -15 3 -14 5 8 6 15 0 27 5 27 10 0 5
15 16 34 25 38 18 176 23 176 6 0 -5 10 -8 23 -6 12 3 32 5 45 5 57 2 -1 41
-70 47 -59 5 -124 22 -155 42 -15 9 -36 11 -67 7 -25 -4 -46 -4 -46 -1 0 11
66 36 97 37 24 2 25 2 6 6 -13 2 -23 9 -23 14 0 5 -6 9 -12 8 -7 -1 -30 5 -50
14 -21 10 -42 17 -48 17 -5 0 -10 8 -10 18 0 17 7 18 74 14 40 -2 82 0 91 5
16 9 15 12 -6 33 -31 30 -110 65 -118 53 -16 -25 -53 -21 -83 8 -17 16 -34 29
-38 29 -4 0 -10 10 -14 22 -6 26 13 98 26 98 5 0 6 4 3 10 -3 5 1 23 10 40 8
16 13 30 9 30 -3 0 6 21 20 46 14 26 26 57 26 70 0 28 2 28 55 10 22 -8 52
-17 67 -20 32 -7 78 -72 78 -109 0 -18 11 -29 50 -47 28 -13 65 -23 83 -23 33
1 135 28 146 39 6 6 -30 39 -51 46 -8 3 -4 13 10 28 17 19 25 21 34 12 14 -14
54 -16 63 -2 3 5 20 7 38 4 l32 -6 -24 18 c-14 10 -63 28 -110 40 -89 23 -108
36 -69 49 22 7 22 7 3 12 -22 6 -46 34 -39 45 3 5 1 8 -5 8 -16 0 -2 28 17 32
19 5 155 -7 203 -17 47 -11 28 10 -38 40 -70 33 -134 45 -203 41 -77 -4 -140
-17 -140 -28 0 -5 -5 -6 -11 -3 -6 4 -20 -3 -31 -15 -13 -14 -26 -19 -37 -15
-9 4 -24 10 -33 12 -18 5 -25 23 -10 23 5 0 9 16 10 35 1 19 5 43 10 53 5 9 7
22 5 29 -2 6 1 14 6 18 6 3 11 17 11 31 0 18 5 24 23 24 17 0 25 9 34 37 6 21
8 40 4 43 -14 9 -34 77 -28 93 4 10 24 18 54 22 26 4 76 15 110 26 66 20 148
25 158 9 3 -5 24 -14 47 -20 26 -7 42 -18 45 -31 3 -10 10 -19 17 -19 6 -1 21
-9 34 -19 18 -16 22 -29 22 -81 0 -54 3 -65 25 -82 14 -11 25 -30 25 -43 0
-15 7 -26 19 -30 11 -3 23 -15 26 -26 8 -24 17 -24 33 1 15 24 42 26 42 4 0
-11 6 -15 19 -11 22 5 32 -1 47 -28 6 -11 26 -28 44 -37 22 -12 37 -29 46 -54
7 -20 17 -40 23 -43 5 -3 11 -22 13 -41 2 -19 8 -35 14 -35 6 0 18 -8 28 -18
14 -13 17 -30 14 -72 -3 -59 1 -63 45 -46 l25 10 -1 153 -2 153 -48 110 c-27
61 -54 117 -61 125 -21 24 -45 79 -52 119 -4 20 -17 52 -29 71 -25 40 -143
160 -157 160 -5 0 -21 11 -36 25 -15 14 -52 40 -82 57 -30 17 -74 46 -97 65
-23 18 -47 33 -55 33 -7 0 -33 19 -58 43 -45 42 -46 42 -135 48 -49 3 -94 2
-100 -2 -5 -4 -26 -5 -45 -3 -90 10 -127 10 -153 3z m783 -729 c0 -5 -7 -10
-16 -10 -8 0 -12 5 -9 10 3 6 10 10 16 10 5 0 9 -4 9 -10z m-796 -148 c3 -5 8
-32 12 -61 5 -42 4 -53 -6 -49 -18 6 -45 81 -37 102 7 17 23 21 31 8z m-14
-732 c0 -5 -4 -10 -10 -10 -5 0 -10 5 -10 10 0 6 5 10 10 10 6 0 10 -4 10 -10z
m150 -20 c8 -5 11 -12 7 -16 -4 -4 -12 -3 -18 3 -6 6 -19 9 -28 6 -14 -4 -14
-3 -1 6 18 13 21 13 40 1z m1515 -1121 c18 -34 14 -59 -10 -59 -24 0 -40 43
-26 69 15 27 18 27 36 -10z m-433 -161 c-7 -7 -12 -8 -12 -2 0 14 12 26 19 19
2 -3 -1 -11 -7 -17z m-5794 -11 c6 -7 8 -23 5 -36 -4 -14 -1 -26 8 -31 19 -12
-17 -50 -48 -50 -13 0 -26 -7 -29 -15 -4 -9 -19 -15 -40 -15 -32 0 -34 2 -28
28 10 48 13 52 39 52 14 0 25 4 25 9 0 5 9 13 20 16 13 4 20 15 20 31 0 26 12
31 28 11z m-338 -47 c7 -14 7 -20 0 -20 -5 0 -10 -9 -10 -21 0 -29 -34 -21
-38 9 -4 23 13 52 29 52 5 0 13 -9 19 -20z m-52 -73 c19 -22 3 -57 -25 -55
-34 3 -47 22 -33 47 12 24 42 28 58 8z m7456 -73 c6 -10 16 -22 21 -26 6 -5 5
-8 -2 -8 -16 0 -53 36 -53 51 0 16 22 6 34 -17z m91 -63 c-9 -16 -25 -3 -18
15 4 10 9 12 15 6 6 -6 7 -15 3 -21z m-2064 -24 c-8 -8 -11 -7 -11 4 0 9 3 19
7 23 4 4 9 2 11 -4 3 -7 -1 -17 -7 -23z m-3521 -83 c0 -21 62 -114 72 -108 13
8 8 -136 -6 -186 -17 -63 -37 -100 -53 -100 -7 0 -13 -6 -13 -12 0 -7 -12 -24
-25 -37 -14 -13 -25 -30 -25 -38 0 -30 -32 -84 -47 -79 -8 3 -11 2 -8 -3 9
-16 -14 -23 -50 -17 -21 4 -35 13 -38 26 -4 14 -14 20 -35 20 -45 0 -61 31
-49 94 5 28 14 57 20 65 14 17 20 59 11 80 -17 42 -2 191 20 191 14 0 40 66
31 79 -12 21 35 37 114 38 66 2 81 -1 81 -13z m884 -91 c7 -43 6 -108 -1 -80
-6 22 -83 25 -83 3 0 -8 10 -16 23 -19 20 -3 20 -4 3 -12 -43 -19 -52 78 -11
120 38 37 61 33 69 -12z m896 -4 c-7 -11 -14 -18 -17 -15 -3 3 0 12 7 21 18
21 23 19 10 -6z m-80 -29 c-6 -11 -12 -20 -14 -20 -2 0 -2 9 1 20 3 11 9 20
15 20 5 0 4 -9 -2 -20z m43 -5 c-3 -13 -12 -30 -21 -37 -14 -11 -15 -10 -8 7
5 11 11 28 13 38 8 26 21 20 16 -8z m-3453 -22 c0 -20 -7 -31 -25 -40 -30 -14
-31 -10 -4 33 25 41 29 42 29 7z m-315 -23 c3 -5 1 -10 -4 -10 -6 0 -11 5 -11
10 0 6 2 10 4 10 3 0 8 -4 11 -10z m2765 -19 c0 -6 -4 -13 -10 -16 -5 -3 -10
1 -10 9 0 9 5 16 10 16 6 0 10 -4 10 -9z m-1276 -153 c-3 -4 -2 -7 3 -6 17 4
53 -14 53 -28 0 -8 -4 -14 -9 -14 -5 0 -13 -13 -19 -28 l-10 -28 -73 7 c-41 4
-85 8 -99 9 -40 1 -54 14 -46 44 4 15 11 24 16 21 6 -4 13 1 16 9 4 10 18 16
35 16 19 0 29 5 29 14 0 20 70 25 92 7 10 -7 15 -18 12 -23z m-944 -63 c10
-12 10 -15 0 -15 -7 0 -19 -8 -26 -17 -12 -16 -13 -15 -14 15 0 35 18 43 40
17z m7468 -78 c1 -30 -1 -38 -8 -27 -11 18 -13 70 -2 70 4 0 8 -19 10 -43z
m-6490 -43 c27 -42 27 -52 3 -83 -17 -23 -18 -23 -50 -6 -26 13 -32 21 -27 38
3 12 6 25 6 30 0 4 6 7 14 7 22 0 38 24 24 38 -7 7 -8 12 -2 12 5 -1 19 -17
32 -36z m6512 -33 c0 -9 4 -21 9 -26 10 -12 34 -106 28 -111 -9 -9 -25 23 -40
82 -20 70 -21 88 -7 79 6 -3 10 -14 10 -24z m-6030 -259 c-5 -2 -10 -10 -10
-18 0 -20 -55 -66 -97 -81 -27 -10 -33 -10 -33 2 0 7 6 15 13 18 10 4 10 7 0
18 -21 21 -15 53 14 74 15 11 34 27 43 36 14 15 18 13 48 -15 18 -17 28 -32
22 -34z m6086 9 c2 -28 -20 -21 -24 8 -3 16 1 22 10 19 7 -3 14 -15 14 -27z
m72 -3 c-3 -7 -17 -14 -32 -16 -25 -3 -27 -2 -15 12 17 18 52 21 47 4z m-23
-158 c3 -14 14 -58 25 -97 21 -77 26 -143 11 -143 -10 0 -15 14 -26 70 -4 19
-11 40 -15 45 -4 6 -13 39 -19 75 -6 36 -13 79 -17 95 l-6 30 21 -25 c12 -14
23 -36 26 -50z m-6416 13 c13 -10 14 -14 2 -22 -15 -10 -51 -3 -51 10 0 19 25
50 29 37 2 -7 11 -19 20 -25z m781 -22 c0 -19 6 -30 18 -34 23 -5 37 -47 16
-47 -17 0 -17 -7 -3 -49 10 -27 15 -31 49 -31 l38 0 7 -82 c7 -78 6 -83 -15
-100 -15 -12 -26 -15 -30 -9 -4 7 -14 5 -28 -5 -12 -8 -20 -20 -17 -25 6 -8
-25 -60 -50 -84 -17 -17 -65 -35 -65 -25 0 6 -16 10 -35 10 -22 0 -38 6 -41
15 -4 10 -20 15 -44 15 -21 0 -40 4 -42 9 -1 5 -20 2 -40 -6 l-38 -15 0 -62
c1 -38 6 -68 15 -80 8 -11 15 -41 15 -67 l0 -47 -41 -4 c-22 -2 -42 -1 -45 3
-6 11 -46 -2 -73 -23 -19 -14 -39 -18 -79 -17 -47 2 -57 -1 -72 -21 -10 -14
-16 -28 -14 -32 3 -4 -2 -8 -10 -8 -9 0 -25 -13 -38 -30 -20 -27 -27 -30 -80
-30 -55 0 -58 1 -58 24 0 57 23 180 40 219 11 23 20 57 20 75 0 37 12 59 56
109 37 40 82 46 152 18 45 -18 72 -10 72 22 0 11 -14 14 -67 11 -38 -1 -69 1
-70 5 -7 19 -2 29 13 23 25 -10 54 12 54 41 0 26 76 153 92 153 4 0 13 -10 20
-22 11 -19 22 -23 61 -23 45 0 47 1 53 33 3 17 10 32 15 32 4 0 14 18 20 40 8
27 18 40 29 40 10 0 23 7 31 16 7 8 26 22 43 31 17 9 33 19 36 22 16 22 59 41
92 41 35 0 38 -2 38 -29z m-2300 -40 c0 -5 3 -16 6 -24 3 -8 -2 -17 -10 -20
-12 -5 -16 1 -16 23 0 17 5 30 10 30 6 0 10 -4 10 -9z m7977 -13 c-3 -8 -6 -5
-6 6 -1 11 2 17 5 13 3 -3 4 -12 1 -19z m-6991 -127 c-4 -6 -16 -11 -27 -11
-15 0 -19 7 -19 37 l0 38 26 -27 c15 -14 23 -31 20 -37z m4799 49 c3 -5 1 -10
-4 -10 -6 0 -11 5 -11 10 0 6 2 10 4 10 3 0 8 -4 11 -10z m-59 -48 c-12 -11
-18 7 -10 30 l8 23 4 -23 c2 -13 1 -26 -2 -30z m34 -26 c0 -3 -4 -8 -10 -11
-5 -3 -10 -1 -10 4 0 6 5 11 10 11 6 0 10 -2 10 -4z m40 -88 c0 -49 -5 -47
-14 5 -4 23 -3 37 4 37 5 0 10 -19 10 -42z m2236 -7 c8 -15 10 -52 7 -102 -4
-56 -2 -79 6 -79 6 0 11 -4 11 -10 0 -17 -28 -11 -34 8 -3 9 -10 49 -17 87 -6
39 -17 80 -25 92 -21 33 -17 42 14 34 15 -4 32 -18 38 -30z m-7561 -42 c-5 -6
-13 -3 -22 10 -8 12 -11 26 -8 32 5 6 13 3 22 -10 8 -12 11 -26 8 -32z m7785
-19 c0 -33 -3 -40 -20 -40 -17 0 -20 7 -20 40 0 33 3 40 20 40 17 0 20 -7 20
-40z m607 -82 c6 -7 19 -35 29 -63 10 -27 24 -56 31 -63 7 -7 13 -20 13 -29 0
-12 6 -13 28 -8 15 5 50 7 79 6 50 -2 53 0 75 33 13 20 30 37 38 39 23 5 51
-4 44 -14 -3 -5 3 -12 13 -16 29 -11 42 -35 41 -80 0 -39 -3 -43 -37 -54 -20
-7 -47 -14 -61 -15 -50 -5 -90 -16 -90 -25 0 -4 -11 -19 -25 -33 -14 -14 -25
-34 -25 -45 0 -11 -11 -28 -25 -39 -13 -11 -21 -22 -18 -26 3 -3 -3 -6 -15 -6
-15 0 -22 -6 -22 -19 0 -16 -9 -20 -49 -23 -27 -1 -47 0 -44 5 2 4 -2 7 -10 7
-8 0 -20 7 -27 15 -7 8 -23 15 -35 15 -13 0 -36 7 -51 15 -16 9 -50 14 -75 13
-26 -1 -61 4 -78 11 -29 13 -31 16 -31 67 0 36 -4 54 -12 55 -10 0 -10 2 0 6
6 2 12 16 12 29 0 21 4 24 39 24 36 0 40 -3 43 -27 3 -26 7 -28 51 -31 l47 -3
0 40 c0 23 -4 41 -10 41 -5 0 -10 18 -10 39 0 39 -1 40 -37 43 l-38 4 30 8
c26 7 95 67 95 83 0 28 98 45 117 21z m-534 -100 c5 -14 1 -18 -18 -18 -23 0
-25 4 -25 41 l0 42 18 -24 c10 -13 21 -32 25 -41z m47 -63 c0 -8 6 -15 13 -15
12 0 37 -85 37 -128 0 -17 -6 -22 -25 -22 -23 0 -25 -4 -25 -45 0 -25 -4 -45
-10 -45 -5 0 -10 15 -10 34 0 35 -34 106 -51 106 -5 0 -9 10 -9 23 0 13 -5 28
-12 35 -9 9 -9 12 0 12 7 0 12 13 12 30 0 28 2 30 40 30 29 0 40 -4 40 -15z
m-7502 -95 c16 -15 22 -33 22 -60 0 -22 -4 -40 -8 -40 -5 0 -14 -10 -20 -22
-6 -13 -11 -17 -11 -10 -1 7 -16 12 -40 12 -51 0 -63 25 -25 55 20 16 27 30
26 53 -1 38 22 43 56 12z m242 -15 c13 -15 5 -39 -11 -30 -5 4 -9 -8 -9 -24 0
-17 -5 -31 -11 -31 -7 0 -18 -8 -25 -17 -13 -17 -15 -17 -29 1 -11 14 -15 16
-15 5 -1 -9 -4 -8 -12 5 -8 14 -8 24 1 37 6 11 11 25 11 33 0 14 40 34 71 35
9 1 22 -6 29 -14z m1759 -73 c11 -26 22 -35 57 -44 24 -7 44 -15 44 -19 0 -3
9 -16 20 -29 24 -28 25 -50 4 -110 -21 -58 -12 -122 21 -162 14 -16 25 -41 25
-55 0 -38 28 -89 56 -102 13 -6 29 -21 34 -33 8 -22 9 -22 9 4 1 15 6 30 11
33 12 8 13 105 1 105 -16 0 -35 62 -32 108 2 43 36 110 49 98 3 -3 11 3 19 14
8 11 22 20 31 19 10 0 12 -3 5 -6 -7 -2 -13 -19 -13 -36 l1 -32 25 45 c14 25
23 36 19 26 -3 -10 -14 -51 -24 -90 -11 -39 -28 -98 -39 -131 -11 -33 -26 -97
-32 -142 -7 -46 -17 -80 -22 -77 -5 3 -6 -5 -2 -20 3 -14 1 -40 -5 -58 -5 -18
-12 -67 -15 -109 -3 -41 -8 -84 -12 -94 -5 -13 -4 -16 4 -11 15 9 15 -4 -1
-56 -8 -24 -24 -76 -37 -115 -14 -47 -27 -73 -37 -73 -11 0 -13 -8 -8 -32 5
-25 4 -29 -4 -18 -7 10 -11 11 -11 3 0 -7 -7 -13 -15 -13 -8 0 -15 -9 -15 -20
0 -11 -3 -20 -7 -20 -5 0 -17 -7 -28 -16 -17 -13 -18 -16 -5 -25 11 -7 6 -8
-18 -4 -19 3 -31 2 -29 -2 3 -5 -22 -10 -56 -11 -62 -3 -120 -22 -134 -45 -16
-24 -76 -38 -111 -25 -28 11 -32 17 -32 50 0 21 4 38 9 38 4 0 11 28 14 61 3
34 10 66 16 72 6 6 11 38 11 72 0 49 4 62 20 73 11 7 20 19 20 27 0 10 11 15
34 15 25 0 35 5 39 20 4 14 14 20 35 20 40 0 71 34 54 60 -7 11 -12 27 -12 35
0 9 -7 18 -15 21 -8 4 -15 12 -15 20 0 11 -8 13 -27 8 -63 -14 -83 -28 -83
-57 0 -20 -7 -30 -22 -36 -16 -6 -24 -5 -26 4 -4 16 -62 28 -88 19 -37 -14
-54 -42 -54 -88 0 -25 5 -48 10 -51 12 -7 3 -51 -16 -82 -8 -12 -14 -29 -14
-38 0 -8 -7 -15 -15 -15 -8 0 -15 -4 -15 -9 0 -4 -9 -20 -20 -34 -20 -25 -22
-26 -62 -11 -47 16 -127 73 -128 90 0 7 -6 12 -12 11 -46 -1 -68 5 -68 18 0 8
5 15 11 15 5 0 7 5 3 11 -4 8 -12 2 -21 -15 -21 -40 -14 -185 10 -200 13 -8
24 -7 45 4 21 13 32 13 49 5 35 -18 60 -44 66 -68 3 -12 13 -41 21 -65 12 -30
13 -48 6 -60 -6 -11 -10 -12 -10 -4 0 7 -4 10 -10 7 -5 -3 -10 -1 -10 4 0 6
-18 11 -40 11 -30 0 -46 7 -70 30 -16 16 -30 36 -30 43 0 8 -11 19 -25 25 -14
6 -25 16 -25 22 0 5 -11 10 -25 10 -14 0 -25 -4 -25 -10 0 -15 -72 -12 -92 4
-23 17 -45 79 -52 147 -3 30 -5 55 -6 57 -1 10 -40 -22 -40 -33 0 -8 -4 -15
-10 -15 -5 0 -12 -11 -16 -25 -3 -14 -10 -25 -14 -25 -4 0 -7 -11 -7 -24 0
-28 -48 -75 -76 -76 -15 0 -17 -6 -11 -36 8 -42 -18 -109 -53 -137 -13 -10
-23 -25 -23 -32 0 -7 -6 -20 -14 -27 -7 -8 -17 -33 -21 -56 -3 -23 -15 -52
-26 -66 -10 -13 -19 -34 -19 -45 0 -12 -4 -21 -8 -21 -5 0 -24 -22 -43 -50
-49 -72 -66 -67 -72 20 -5 71 -20 90 -72 90 -38 0 -45 -3 -45 -20 0 -17 -7
-20 -52 -20 -40 0 -49 3 -40 12 7 7 12 25 12 40 0 17 5 28 14 28 8 0 12 8 9
23 -3 13 4 31 16 44 12 12 21 27 21 33 0 5 10 20 22 32 14 14 18 23 10 26 -7
2 -12 9 -12 14 0 6 3 8 6 5 4 -4 19 2 34 13 15 11 30 17 33 13 4 -3 21 -7 38
-8 17 -2 35 -9 40 -16 7 -11 9 -11 9 -1 0 7 5 10 10 7 6 -4 8 -11 5 -16 -4 -5
5 -9 19 -9 25 0 26 2 26 69 0 44 -5 74 -13 83 -22 22 -40 98 -44 190 -4 72 -1
93 16 125 18 36 23 39 59 39 36 -1 83 -27 80 -45 -5 -40 3 -51 37 -51 21 0 44
8 60 22 23 20 25 28 25 107 0 47 5 104 12 126 6 22 11 43 10 48 -1 4 22 7 51
7 44 0 58 -4 77 -25 13 -14 29 -25 37 -25 7 0 13 -7 13 -15 0 -8 4 -15 8 -15
5 0 15 -19 23 -42 12 -39 108 -153 110 -132 4 60 12 93 27 114 12 15 24 60 32
112 7 48 16 92 20 98 4 7 27 16 51 20 41 8 44 6 75 -28 l32 -37 7 28 c5 17 14
27 26 27 15 0 19 7 19 40 0 29 -4 40 -15 40 -8 0 -15 7 -15 15 0 9 -7 29 -15
44 -12 24 -21 57 -26 99 -3 19 2 58 9 69 4 6 21 13 38 16 26 4 38 -1 68 -30
20 -19 36 -45 36 -57 0 -22 53 -76 74 -76 7 0 19 -23 26 -51 8 -27 18 -52 22
-55 4 -3 8 -21 8 -40 0 -31 2 -33 19 -22 12 7 23 29 26 50 4 24 12 38 21 38
11 0 14 10 12 38 -2 24 -8 36 -16 34 -8 -1 -11 2 -7 8 3 6 11 8 16 5 5 -4 9 6
9 20 0 15 6 33 14 40 10 10 13 48 14 144 1 131 10 171 37 171 8 0 15 4 15 9 0
5 10 11 23 15 18 5 20 8 7 16 -14 9 -6 15 15 10 6 -1 7 2 3 6 -4 4 -3 14 4 21
9 11 9 16 -3 23 -12 8 -11 14 4 39 9 16 18 37 18 48 1 10 5 5 8 -12 4 -16 13
-45 20 -63z m5245 -3 c9 8 16 12 17 10 0 -2 2 -11 4 -20 1 -8 15 -41 30 -72
21 -46 31 -57 50 -57 24 0 32 -6 60 -45 13 -18 14 -18 15 -2 0 30 20 18 20
-13 0 -16 -4 -30 -10 -30 -5 0 -10 -4 -10 -10 0 -5 7 -10 15 -10 8 0 15 -7 15
-16 0 -8 -5 -12 -11 -9 -6 4 -13 -3 -16 -15 -4 -13 -11 -19 -20 -16 -8 3 -26
6 -39 6 -15 0 -24 6 -24 16 0 10 -6 14 -14 11 -8 -3 -20 1 -26 9 -7 8 -18 14
-25 14 -13 0 -38 54 -29 63 3 2 -7 27 -21 55 -25 49 -31 94 -19 127 5 13 9 14
15 4 6 -10 11 -10 23 0z m336 1 c0 -5 -4 -10 -10 -10 -5 0 -10 5 -10 10 0 6 5
10 10 10 6 0 10 -4 10 -10z m-2793 -62 c-3 -8 -6 -5 -6 6 -1 11 2 17 5 13 3
-3 4 -12 1 -19z m2793 -18 c0 -5 -13 -10 -30 -10 -16 0 -30 5 -30 10 0 6 14
10 30 10 17 0 30 -4 30 -10z m-5168 -62 c-6 -6 -15 -8 -19 -4 -4 4 -1 11 7 16
19 12 27 3 12 -12z m-2482 -99 c0 -5 -7 -9 -15 -9 -9 0 -15 9 -15 21 0 18 2
19 15 9 8 -7 15 -16 15 -21z m-83 -20 c15 -15 6 -135 -12 -164 -6 -11 -15 -37
-19 -58 -4 -21 -18 -47 -31 -59 -13 -12 -22 -26 -18 -31 4 -7 -8 -8 -32 -4
-44 7 -55 19 -55 63 0 29 -39 123 -40 97 0 -8 -13 -13 -30 -13 -16 0 -30 3
-30 8 1 13 50 43 60 37 6 -3 10 0 11 7 0 10 2 10 6 1 9 -23 19 -13 32 34 23
77 49 92 115 67 11 -4 16 -1 16 10 0 19 11 21 27 5z m7836 -70 c4 -3 1 -12 -8
-19 -13 -11 -15 -9 -15 15 0 16 3 24 8 19 4 -5 11 -11 15 -15z m-579 2 c4 -5
-3 -7 -14 -4 -23 6 -26 13 -6 13 8 0 17 -4 20 -9z m154 -10 c-5 -22 -86 -21
-118 2 -24 17 -24 17 48 15 60 -1 72 -4 70 -17z m102 0 c0 -6 -4 -13 -10 -16
-5 -3 -11 -34 -12 -68 -1 -42 -3 -50 -5 -24 -6 51 -33 51 -33 0 0 -20 -3 -34
-6 -31 -3 4 -2 38 2 77 6 70 7 71 35 71 16 0 29 -4 29 -9z m890 -29 c0 -39 39
-128 76 -175 19 -23 29 -27 74 -27 41 0 61 -6 86 -25 18 -14 37 -25 42 -25 5
0 17 -25 27 -55 14 -47 21 -55 41 -55 14 0 24 -6 24 -14 0 -11 10 -13 40 -9
23 3 40 1 40 -4 0 -6 18 -18 40 -28 25 -11 40 -25 40 -36 0 -28 -47 -69 -79
-69 -24 0 -30 -6 -41 -40 -7 -22 -19 -40 -27 -40 -7 0 -13 -6 -13 -13 0 -9
-13 -14 -35 -15 -19 -1 -54 -12 -77 -24 l-43 -23 34 -3 c20 -2 37 2 42 10 7
10 11 10 17 0 17 -25 142 -45 142 -22 0 6 4 10 10 10 5 0 20 11 33 24 18 18
31 23 48 19 28 -8 51 -28 42 -37 -7 -7 17 -9 60 -6 15 1 27 -3 27 -9 0 -6 -13
-11 -29 -11 -28 0 -29 -2 -34 -52 -10 -103 -30 -164 -56 -171 -12 -3 -21 -18
-25 -41 -4 -22 -13 -36 -21 -36 -8 0 -24 -9 -35 -20 -24 -24 -40 -26 -40 -4 0
9 -13 30 -30 46 -20 19 -30 38 -30 58 0 20 -5 30 -15 30 -8 0 -15 4 -15 9 0
18 -51 58 -90 70 l-40 12 1 65 c1 36 0 67 -3 69 -2 3 -28 9 -57 15 -29 5 -65
20 -80 32 -35 29 -61 98 -61 163 0 64 -9 95 -26 95 -8 0 -14 4 -14 8 0 8 -86
32 -111 32 -18 0 -9 -94 13 -130 18 -30 21 -48 19 -130 l-2 -95 42 -18 41 -18
-6 -57 c-14 -124 -18 -152 -26 -152 -4 0 -10 -13 -13 -29 -3 -16 -13 -36 -22
-44 -22 -22 -19 -50 7 -66 22 -13 22 -14 4 -21 -19 -6 -19 -7 1 -27 23 -23 36
-53 23 -53 -5 0 -5 -13 1 -32 9 -34 4 -68 -11 -68 -5 0 -12 -9 -15 -21 -5 -13
-12 -18 -22 -14 -36 13 -53 -4 -53 -55 0 -51 25 -130 41 -130 5 0 9 -20 9 -45
0 -43 -8 -60 -53 -107 -16 -17 -18 -32 -12 -131 l6 -112 -51 -34 c-47 -32 -52
-33 -69 -17 -10 9 -23 34 -30 55 -6 21 -19 42 -28 45 -14 6 -11 13 21 41 21
19 51 37 67 40 16 4 29 10 29 15 0 4 9 10 20 13 15 4 20 14 20 41 0 20 -4 36
-9 36 -5 0 -11 9 -14 20 -3 12 -14 20 -25 20 -12 0 -24 5 -27 10 -3 6 -25 11
-48 12 l-42 1 45 7 45 7 -54 1 c-41 2 -59 7 -76 25 -33 33 -64 57 -76 57 -17
0 -37 25 -41 51 -2 18 -9 24 -25 23 -13 -1 -20 2 -17 7 2 4 -5 13 -16 19 -19
10 -20 8 -20 -45 0 -48 2 -55 20 -55 32 0 25 -34 -25 -115 -15 -25 -24 -56
-25 -82 0 -24 -4 -43 -10 -43 -5 0 -10 18 -10 40 0 22 -4 40 -8 40 -5 0 -7 36
-4 80 3 55 1 80 -7 80 -19 0 -12 35 12 55 l22 20 -24 3 c-31 5 -60 40 -61 73
0 43 -67 96 -91 72 -6 -6 -5 -50 2 -112 10 -81 9 -105 0 -111 -8 -4 -11 -22
-10 -43 2 -20 1 -38 -2 -41 -8 -8 -59 8 -58 18 1 9 -21 26 -33 26 -5 0 -8 -9
-8 -20 0 -11 -5 -20 -12 -20 -9 0 -9 -3 0 -12 7 -7 12 -25 12 -40 0 -21 5 -28
19 -28 12 0 20 -7 20 -17 4 -89 14 -118 38 -109 9 4 17 -1 20 -14 3 -11 11
-20 18 -20 7 0 20 -17 28 -37 14 -35 13 -42 -4 -87 -26 -69 -54 -96 -100 -96
-20 0 -39 5 -41 11 -2 7 -26 14 -53 16 -48 5 -105 29 -105 45 0 4 16 8 35 8
19 0 55 5 80 12 39 11 45 16 45 39 0 15 6 39 14 54 16 30 11 59 -10 51 -7 -3
-18 2 -24 10 -7 8 -21 14 -31 14 -10 0 -20 4 -24 9 -9 15 -78 1 -100 -20 -17
-16 -20 -33 -20 -97 0 -62 -3 -77 -15 -77 -8 0 -18 -4 -21 -9 -9 -12 -89 73
-89 95 0 20 26 27 32 9 6 -18 48 20 48 43 0 44 33 163 51 183 11 11 19 26 19
32 0 7 8 12 18 12 9 0 25 7 35 14 19 15 23 46 6 46 -6 0 -9 9 -6 20 3 10 2 19
-2 18 -40 -5 -44 1 -38 58 3 31 12 63 21 73 8 9 18 28 21 44 8 32 15 37 58 44
18 3 34 6 36 8 10 11 15 137 6 174 -5 18 -3 22 9 18 18 -7 28 6 32 40 1 14 -3
23 -12 23 -18 0 -18 18 1 36 8 9 15 22 15 30 0 8 -7 14 -15 14 -11 0 -15 11
-15 40 0 27 -4 40 -14 40 -8 0 -16 16 -20 43 -6 34 -9 39 -17 25 -17 -31 -29
-20 -29 27 0 42 1 44 19 33 20 -12 28 -29 41 -83 7 -29 8 -29 15 -7 6 18 10
20 21 11 8 -6 14 -18 14 -26 0 -8 4 -11 10 -8 6 4 7 -6 4 -25 -5 -20 -3 -30 6
-30 7 0 10 -8 7 -20 -4 -15 0 -20 16 -20 30 0 87 -58 87 -90 0 -14 9 -33 20
-43 12 -10 18 -22 15 -28 -4 -5 -2 -15 3 -22 5 -7 9 -26 7 -43 -2 -22 3 -35
18 -45 11 -8 29 -22 39 -31 36 -35 123 -18 89 17 -5 6 -11 24 -12 40 -4 33
-27 68 -40 59 -5 -3 -6 2 -3 10 4 10 1 16 -9 16 -8 0 -17 7 -21 15 -3 8 -17
20 -31 27 -13 6 -27 20 -31 30 -6 19 13 51 25 43 4 -2 15 5 24 15 9 11 23 17
31 14 8 -3 17 -1 21 5 3 6 12 11 20 11 15 0 75 56 75 71 0 5 5 9 11 9 17 0 69
62 69 83 0 31 26 15 30 -21 1 -4 7 -14 14 -22 8 -8 12 -23 11 -33 -2 -10 3
-21 11 -24 8 -3 14 -10 14 -17 0 -6 9 -17 20 -24 28 -17 33 0 21 76 -5 33 -7
94 -4 136 6 71 4 77 -18 95 -13 11 -36 25 -51 31 -14 7 -28 21 -31 32 -3 11
-10 17 -16 13 -7 -4 -25 25 -47 71 -28 60 -32 79 -22 85 10 7 11 12 1 29 -7
11 -13 45 -13 75 l0 55 66 0 66 0 -4 -40 c-2 -22 0 -40 5 -40 4 0 6 -4 2 -9
-3 -5 2 -16 10 -24 8 -9 15 -23 15 -31 0 -9 8 -16 20 -16 10 0 23 -7 28 -15 7
-14 12 -13 35 5 15 12 25 26 22 30 -3 5 7 16 22 24 24 12 28 21 31 62 2 30 9
52 18 57 8 4 14 17 14 27 0 11 5 20 10 20 6 0 10 7 10 15 0 8 -4 15 -10 15
-16 0 -12 19 9 36 10 9 16 24 14 34 -8 30 55 90 95 90 30 0 32 -2 32 -38z
m-2470 14 c0 -2 -9 -6 -20 -9 -11 -3 -20 -1 -20 4 0 5 9 9 20 9 11 0 20 -2 20
-4z m1999 -100 l10 -37 -31 3 c-26 2 -34 9 -43 38 -10 29 -10 38 3 53 15 16
16 16 33 -2 9 -10 22 -35 28 -55z m781 59 c0 -10 10 -15 30 -15 23 0 30 -4 30
-20 0 -17 -7 -20 -40 -20 -39 0 -40 1 -40 35 0 19 5 35 10 35 6 0 10 -7 10
-15z m-2935 -15 c3 -5 2 -10 -4 -10 -5 0 -13 5 -16 10 -3 6 -2 10 4 10 5 0 13
-4 16 -10z m-3355 -90 c0 -5 -2 -10 -4 -10 -3 0 -8 5 -11 10 -3 6 -1 10 4 10
6 0 11 -4 11 -10z m5058 -12 c10 -22 11 -22 11 -3 1 24 41 33 41 9 0 -9 10
-14 29 -14 44 0 55 -21 45 -83 -7 -40 -5 -66 8 -117 28 -100 22 -300 -8 -300
-7 0 -19 9 -27 20 -8 11 -16 17 -19 14 -3 -3 -8 6 -12 19 -3 13 -17 29 -31 35
-23 11 -25 10 -25 -13 0 -14 -4 -25 -10 -25 -5 0 -10 18 -10 40 0 22 -5 40
-11 40 -6 0 -9 18 -8 45 2 24 0 47 -4 51 -4 4 -7 15 -7 25 0 10 -7 24 -15 32
-17 18 -33 155 -19 165 5 4 17 24 26 45 20 43 31 46 46 15z m-1460 -88 c0 -22
-1 -22 -8 5 -4 17 -8 41 -8 55 0 22 1 22 8 -5 4 -16 8 -41 8 -55z m-6196 -8
c15 -15 13 -139 -2 -157 -6 -7 -10 -24 -9 -37 4 -48 -1 -55 -42 -66 -48 -12
-49 -11 -72 121 -17 92 -12 132 18 143 8 4 15 12 15 19 0 10 8 11 40 1 22 -6
45 -17 52 -24z m9128 31 c0 -5 -6 -16 -14 -25 -10 -13 -15 -15 -24 -6 -20 20
-13 38 13 38 14 0 25 -3 25 -7z m204 -39 c9 -3 16 -12 16 -20 0 -8 4 -14 9
-14 8 0 13 -25 27 -143 5 -43 4 -49 -15 -54 -12 -3 -21 -9 -21 -13 0 -4 -17
-13 -39 -20 -31 -10 -43 -10 -62 1 -13 7 -42 15 -64 18 -49 7 -58 33 -21 64
30 26 34 64 9 69 -14 3 -9 10 19 27 21 13 36 27 33 31 -3 4 2 10 10 14 8 3 15
15 15 26 0 16 6 20 34 20 19 0 41 -3 50 -6z m-4637 -206 c-3 -7 -5 -2 -5 12 0
14 2 19 5 13 2 -7 2 -19 0 -25z m3333 -133 c9 -10 9 -15 1 -15 -6 0 -11 -17
-11 -40 0 -22 -4 -40 -9 -40 -4 0 -13 -19 -18 -42 -10 -42 -11 -41 -12 32 -1
112 15 146 49 105z m-8470 -174 c5 -11 10 -45 10 -76 0 -51 -3 -59 -35 -88
-29 -27 -39 -47 -54 -108 -10 -42 -24 -86 -30 -98 -20 -37 -41 -114 -41 -152
0 -19 -9 -54 -21 -78 -19 -40 -22 -42 -57 -39 l-37 3 3 65 c1 39 10 82 22 107
11 24 20 63 20 87 0 24 7 60 15 79 8 20 15 49 15 65 0 16 9 37 20 47 11 10 17
22 14 26 -3 5 1 9 9 9 18 0 35 34 46 93 10 57 12 60 46 60 14 0 25 3 25 8 0
16 19 9 30 -10z m8677 -33 c-3 -7 -5 -2 -5 12 0 14 2 19 5 13 2 -7 2 -19 0
-25z m-650 -190 c-3 -8 -6 -5 -6 6 -1 11 2 17 5 13 3 -3 4 -12 1 -19z m-631
-9 c9 -15 -23 -10 -35 5 -10 12 -8 13 9 9 11 -3 23 -9 26 -14z m107 4 c-7 -2
-19 -2 -25 0 -7 3 -2 5 12 5 14 0 19 -2 13 -5z m80 -10 c-7 -2 -19 -2 -25 0
-7 3 -2 5 12 5 14 0 19 -2 13 -5z m484 1 c-3 -3 -12 -4 -19 -1 -8 3 -5 6 6 6
11 1 17 -2 13 -5z m1670 -19 c0 -8 -6 -15 -14 -15 -7 0 -13 7 -13 15 0 8 6 15
13 15 8 0 14 -7 14 -15z m-667 -75 c0 -5 -18 -10 -40 -10 -22 0 -40 5 -40 10
0 6 18 10 40 10 22 0 40 -4 40 -10z m360 1 c0 -5 3 -23 6 -40 l7 -31 -47 0
c-49 0 -49 1 -40 49 6 27 10 31 40 31 19 0 34 -4 34 -9z m-7160 -102 c0 -5 4
-8 9 -5 19 12 43 -22 48 -66 4 -35 0 -58 -17 -92 -12 -25 -26 -46 -31 -46 -5
0 -9 -6 -9 -14 0 -12 -46 -38 -78 -42 -7 -2 -18 10 -24 24 -6 15 -16 39 -24
54 -17 32 -17 59 -1 122 11 43 18 51 47 62 44 16 80 17 80 3z m4901 -77 c-9
-3 -61 43 -61 55 0 2 16 -8 36 -24 20 -15 31 -29 25 -31z m-4537 -82 c59 0 78
-17 83 -77 5 -49 4 -52 -36 -92 -23 -23 -35 -41 -27 -41 11 0 9 -9 -7 -40 -12
-22 -30 -40 -39 -40 -11 0 -18 -10 -20 -27 l-3 -28 -26 28 c-15 15 -31 27 -38
27 -6 0 -11 9 -11 20 0 12 -7 32 -16 46 -18 27 -8 49 23 49 9 0 21 9 27 20 6
11 14 22 17 25 11 8 22 73 21 120 0 25 2 37 5 28 3 -14 15 -18 47 -18z m36 20
c0 -5 -4 -10 -10 -10 -5 0 -10 5 -10 10 0 6 5 10 10 10 6 0 10 -4 10 -10z
m-1483 -45 c9 -29 8 -39 -7 -58 -10 -13 -22 -35 -25 -50 -4 -14 -18 -33 -31
-42 -13 -8 -24 -21 -24 -29 0 -21 -38 -59 -51 -50 -9 5 -10 2 -6 -10 5 -12 -3
-28 -23 -49 -28 -30 -30 -38 -30 -106 0 -71 -1 -73 -22 -67 -13 3 -31 6 -40 6
-10 0 -18 7 -18 15 0 8 -4 15 -10 15 -13 0 -13 57 0 65 6 4 8 10 5 15 -2 4 4
18 14 31 10 13 22 35 26 49 10 33 25 51 36 44 5 -3 9 8 9 23 0 17 8 33 20 41
11 7 20 21 20 31 0 11 4 21 9 23 6 2 12 14 14 28 12 60 20 76 50 92 52 27 72
23 84 -17z m8738 -25 c26 -41 60 -80 71 -80 9 0 34 -28 34 -38 0 -6 4 -12 8
-14 7 -3 52 -91 52 -103 0 -3 -13 -5 -30 -5 -20 0 -30 -5 -30 -15 0 -14 -3
-13 -25 2 -13 10 -27 27 -31 38 -3 11 -12 27 -19 35 -8 8 -14 20 -14 25 0 13
-77 36 -96 29 -8 -4 -18 7 -26 30 -7 20 -17 36 -21 36 -4 0 -8 8 -8 17 0 9 3
13 7 10 3 -4 19 11 35 33 38 51 61 51 93 0z m-8578 -60 c3 -11 9 -20 14 -20 5
0 9 -22 9 -49 0 -51 -2 -54 -69 -101 -11 -8 -21 -20 -21 -26 0 -6 -11 -19 -25
-28 -14 -9 -25 -23 -25 -30 0 -8 -11 -21 -24 -30 -24 -15 -25 -15 -28 7 -5 35
22 97 44 97 14 0 18 8 18 39 0 22 5 43 10 46 6 3 10 22 10 41 0 30 3 34 25 34
18 0 25 5 25 20 0 12 7 20 16 20 9 0 18 -9 21 -20z m-1627 -21 c0 -19 -1 -19
-16 -5 -8 9 -12 20 -9 26 9 15 25 2 25 -21z m2410 -55 c0 -29 -4 -56 -10 -59
-5 -3 -10 -18 -10 -31 0 -27 -34 -63 -61 -64 -9 0 -23 -8 -32 -18 -14 -16 -14
-20 0 -50 14 -28 14 -39 3 -71 -7 -22 -10 -44 -6 -49 3 -6 2 -13 -4 -17 -5 -3
-10 -12 -10 -20 0 -10 6 -11 28 -3 19 7 35 6 57 -3 17 -7 33 -12 38 -11 4 1 7
-3 7 -9 0 -5 5 -7 10 -4 6 4 10 3 9 -2 -4 -14 23 -133 31 -138 5 -3 16 -2 25
1 15 6 16 16 11 63 -4 31 -11 58 -16 59 -17 6 -11 38 10 57 11 10 20 27 20 37
0 10 7 21 16 25 21 8 110 -22 106 -37 -2 -9 18 -45 45 -79 1 -2 12 4 23 14 18
16 23 17 57 4 33 -13 39 -21 47 -57 5 -23 13 -42 18 -42 5 0 7 -4 3 -9 -3 -6
3 -9 14 -8 11 0 17 5 15 9 -3 4 0 8 5 8 8 0 7 7 -1 20 -10 15 -10 22 0 32 9 9
12 9 12 -1 0 -8 11 -2 26 14 23 25 26 34 21 84 -3 31 -8 66 -12 78 -14 44 82
91 99 47 9 -25 7 -103 -4 -124 -5 -10 -13 -58 -16 -107 -4 -48 -10 -95 -15
-104 -4 -9 -15 -72 -24 -140 -9 -68 -23 -144 -31 -168 -7 -24 -17 -86 -20
-137 -5 -73 -11 -97 -25 -110 -11 -10 -19 -23 -19 -30 0 -7 -6 -11 -14 -8 -16
6 -29 -46 -15 -61 14 -14 10 -72 -11 -165 -37 -167 -49 -226 -65 -325 -9 -55
-21 -114 -26 -131 -12 -40 -12 -126 1 -158 7 -19 19 -26 47 -31 59 -9 124 -38
139 -61 13 -18 12 -25 -9 -55 -13 -20 -33 -35 -47 -37 -14 -2 -30 -8 -37 -13
-7 -7 -13 -5 -16 3 -4 9 -6 8 -6 -3 -1 -12 -8 -15 -28 -11 -16 3 -30 8 -33 11
-12 16 -67 49 -92 55 -53 12 -76 -23 -45 -69 20 -30 26 -63 13 -73 -45 -36
-119 -4 -136 58 -10 37 -1 60 48 112 25 27 25 29 12 85 -16 73 -34 100 -71
108 -16 4 -29 11 -29 16 0 5 -24 9 -54 9 -30 0 -67 5 -82 10 -32 13 -64 4 -64
-16 0 -19 38 -94 48 -94 4 0 29 -20 56 -43 54 -48 53 -41 25 -184 -12 -59 -11
-66 11 -113 13 -27 27 -50 30 -50 4 0 18 8 31 18 42 33 99 37 99 7 0 -7 9 -24
21 -39 26 -33 79 -35 116 -6 31 24 80 26 105 3 23 -21 23 -39 -3 -93 -12 -24
-26 -78 -31 -120 -5 -41 -15 -90 -23 -108 -24 -52 -19 -98 13 -131 35 -36 64
-51 100 -51 16 0 49 -11 73 -23 24 -13 55 -26 69 -29 14 -3 60 -21 103 -39 92
-39 92 -39 103 68 5 55 11 76 24 83 21 11 76 -3 107 -28 22 -16 22 -18 8 -66
-8 -28 -22 -60 -30 -73 -20 -30 -19 -40 10 -71 29 -31 31 -45 9 -66 -21 -22
-62 -20 -112 4 -22 11 -49 20 -58 20 -18 0 -97 40 -102 53 -2 4 -8 7 -13 7 -6
0 -39 14 -74 30 -35 17 -67 30 -70 30 -4 0 -39 16 -78 35 -46 22 -94 37 -133
41 -57 6 -61 5 -77 -20 -10 -15 -22 -24 -27 -21 -4 3 -10 0 -12 -6 -2 -7 -17
-1 -35 15 -17 14 -36 26 -42 26 -9 0 -43 13 -107 42 -30 14 -80 6 -76 -11 4
-20 -17 -69 -33 -75 -14 -5 -35 15 -54 51 -15 30 -14 43 4 43 8 0 15 4 15 9 0
15 -29 21 -75 14 -40 -5 -45 -3 -45 13 0 11 -11 38 -25 62 -13 24 -29 60 -35
81 -14 53 -28 62 -117 73 -107 13 -108 13 -150 -21 -57 -45 -115 -57 -219 -44
-103 12 -124 9 -124 -22 0 -18 -8 -25 -40 -33 -25 -6 -53 -7 -73 -1 -140 38
-213 51 -292 52 -74 2 -95 6 -116 22 -31 25 -27 40 22 85 66 61 85 110 87 227
2 100 1 103 -25 128 -15 14 -44 30 -63 36 -56 18 -80 37 -80 64 0 47 52 52
137 14 24 -10 47 -19 53 -19 6 0 35 -24 64 -52 86 -84 93 -88 144 -90 26 0 74
-11 107 -24 71 -26 176 -47 186 -37 12 12 -64 92 -99 104 -24 8 -34 20 -43 49
-6 21 -9 50 -5 64 8 34 36 34 104 0 57 -28 72 -58 72 -145 0 -32 5 -49 15 -53
8 -3 15 -16 15 -29 0 -16 13 -33 44 -55 61 -44 100 -51 136 -23 50 37 137 22
173 -30 8 -11 31 -24 52 -29 l36 -8 26 56 c25 56 25 61 19 212 -7 155 -16 239
-35 315 -14 57 -64 152 -77 148 -12 -4 -44 23 -44 37 0 18 30 38 51 33 19 -5
20 -3 14 41 -10 65 9 94 59 88 20 -2 39 -8 42 -13 7 -13 51 -11 59 2 4 6 11
38 16 72 26 190 38 246 63 286 15 22 26 55 26 74 0 18 7 42 15 53 8 10 15 35
15 54 0 33 -4 37 -37 49 -21 8 -49 22 -62 32 -13 11 -32 19 -42 19 -10 0 -21
5 -24 10 -3 6 -17 10 -31 10 -13 0 -24 5 -24 10 0 6 -6 10 -12 10 -20 1 -65
43 -70 67 -4 15 -2 20 8 16 7 -2 23 5 36 17 42 41 82 60 124 60 29 0 44 5 48
16 8 21 6 95 -3 119 -9 24 7 95 24 101 6 3 10 17 7 34 -4 27 -8 30 -42 30 -21
0 -40 -4 -42 -8 -1 -5 -19 -11 -39 -15 -31 -5 -38 -2 -52 22 -9 15 -19 47 -23
70 -7 41 -5 43 46 91 49 45 52 52 46 82 -27 127 -16 158 54 158 21 0 42 5 45
10 3 6 1 10 -4 10 -19 0 -12 16 14 30 13 7 27 21 31 32 3 10 13 18 22 18 9 0
35 7 57 15 36 12 41 12 53 -3 6 -8 12 -39 12 -68z m6227 -11 c-3 -10 -5 -4 -5
12 0 17 2 24 5 18 2 -7 2 -21 0 -30z m-6034 -7 c38 -28 38 -82 -1 -119 -15
-15 -33 -27 -39 -27 -6 0 -13 -4 -15 -10 -1 -5 -17 1 -34 15 -39 30 -44 83
-12 129 36 51 46 52 101 12z m7883 -6 c10 0 14 -7 12 -17 -2 -10 -10 -17 -16
-15 -7 1 -12 -9 -12 -23 0 -18 -5 -25 -20 -25 -13 0 -20 7 -20 20 0 11 -4 20
-10 20 -20 0 -10 29 18 50 23 19 27 20 30 6 2 -9 10 -16 18 -16z m-1735 -240
c32 0 39 -3 39 -20 0 -17 -7 -20 -39 -20 -35 0 -39 3 -45 31 -3 17 -5 46 -4
63 1 23 2 21 5 -11 4 -43 4 -43 44 -43z m-8095 15 c4 -21 17 -43 33 -55 14
-11 32 -25 40 -31 19 -17 101 -55 133 -63 15 -3 35 -18 44 -31 14 -21 15 -32
5 -70 -10 -38 -8 -59 9 -129 23 -94 24 -159 10 -364 -14 -191 -14 -192 -89
-192 -55 0 -91 16 -74 33 3 4 2 7 -3 7 -5 0 -10 14 -10 31 -1 33 -37 74 -70
81 -11 2 -20 13 -22 26 -2 12 -7 22 -11 22 -10 0 -22 47 -27 100 -5 50 -24
156 -39 220 -27 112 -40 340 -22 375 7 13 7 20 -2 23 -20 7 -12 40 12 45 64
12 76 9 83 -28z m9731 -127 c-3 -8 -6 -5 -6 6 -1 11 2 17 5 13 3 -3 4 -12 1
-19z m-10138 -29 c17 -17 31 -37 31 -45 0 -8 9 -24 20 -36 19 -21 17 -49 -3
-29 -5 5 -23 7 -38 4 -18 -3 -29 -1 -29 6 0 6 -11 8 -28 5 -32 -6 -79 28 -74
54 6 36 26 61 51 65 14 2 29 5 33 6 3 0 20 -13 37 -30z m10145 -15 c3 -8 2
-12 -4 -9 -6 3 -10 10 -10 16 0 14 7 11 14 -7z m-8493 -132 c-6 -11 -6 -33 -1
-58 6 -24 5 -56 -1 -84 -7 -31 -7 -46 0 -48 15 -5 14 -52 -1 -53 -32 -3 -63 4
-76 17 -21 21 -20 189 1 228 9 16 14 33 12 37 -3 4 2 10 11 13 8 3 13 10 9 15
-3 5 7 11 22 13 25 3 28 -1 31 -29 2 -18 -1 -41 -7 -51z m5713 59 c-2 -3 -12
3 -22 13 -16 17 -16 18 5 5 12 -7 20 -15 17 -18z m-6220 -42 c-8 -16 -14 -32
-14 -36 0 -10 49 -33 72 -33 16 0 35 -7 103 -36 73 -31 115 -112 115 -223 0
-84 15 -139 48 -173 14 -15 26 -39 28 -53 2 -20 -5 -29 -35 -45 -44 -22 -47
-32 -57 -196 -6 -108 -16 -128 -65 -139 -21 -5 -36 -1 -55 14 -15 12 -41 21
-59 21 -21 0 -42 10 -64 29 -18 16 -45 35 -61 41 -36 15 -56 57 -65 135 -4 33
-16 80 -27 105 -15 36 -18 57 -13 105 4 41 1 73 -8 101 -16 44 -17 303 -2 358
8 28 9 28 61 22 51 -6 54 -5 76 24 27 37 44 20 22 -21z m2168 -9 c2 -22 0 -40
-4 -40 -5 0 -8 18 -8 40 0 22 2 40 4 40 2 0 6 -18 8 -40z m-2944 -500 c26 -24
29 -81 7 -120 -8 -14 -14 -40 -15 -58 0 -30 -14 -73 -39 -122 -16 -30 -35 -15
-47 40 -24 101 -14 188 30 255 20 30 35 31 64 5z m1307 -65 c30 -7 62 -20 69
-28 20 -19 47 -87 40 -98 -7 -13 -44 -11 -44 2 0 6 -6 9 -12 6 -29 -10 -142
76 -145 111 -3 27 13 28 92 7z m-956 -137 c0 -13 -4 -32 -9 -43 -7 -19 -9 -18
-19 7 -6 15 -8 35 -5 43 9 23 34 18 33 -7z m2308 0 c-3 -8 -6 -5 -6 6 -1 11 2
17 5 13 3 -3 4 -12 1 -19z m-30 -130 c-3 -7 -5 -2 -5 12 0 14 2 19 5 13 2 -7
2 -19 0 -25z m3793 -9 c0 -6 -4 -7 -10 -4 -5 3 -10 11 -10 16 0 6 5 7 10 4 6
-3 10 -11 10 -16z m986 -39 c16 -16 115 -50 145 -50 14 0 34 -9 43 -19 10 -11
28 -22 42 -25 13 -4 24 -11 24 -16 0 -6 7 -10 15 -10 8 0 15 -7 15 -15 0 -13
11 -19 31 -17 3 1 12 -10 19 -24 22 -41 3 -49 -109 -48 -95 1 -100 3 -147 35
-60 42 -77 52 -131 79 -46 22 -53 42 -33 94 8 21 16 26 43 26 18 0 38 -5 43
-10z m-7280 -146 c-9 -13 -16 -41 -16 -63 0 -42 -13 -54 -49 -44 -13 3 -21 13
-21 27 0 25 35 86 50 86 7 0 5 9 -4 22 -9 12 -16 33 -16 46 0 22 25 57 41 57
4 0 11 4 16 8 16 17 15 -114 -1 -139z m-381 77 c18 -11 29 -24 27 -34 -2 -9 2
-17 8 -17 6 0 15 -11 20 -25 5 -14 22 -33 38 -42 26 -15 62 -79 62 -113 1 -21
25 -51 35 -42 5 4 6 0 2 -9 -3 -11 3 -21 19 -29 13 -8 24 -19 24 -26 0 -18 37
-23 57 -7 10 8 11 11 3 7 -11 -6 -10 -2 3 13 9 11 17 27 17 37 0 21 45 39 81
31 22 -5 29 -14 38 -51 6 -24 9 -55 5 -69 -3 -14 -3 -37 0 -51 6 -21 9 -24 21
-14 12 10 22 9 49 -4 35 -17 52 -41 35 -52 -5 -3 -31 -6 -56 -6 -33 0 -51 5
-60 18 -7 9 -21 18 -30 19 -27 3 -70 22 -78 34 -7 12 -54 14 -71 3 -20 -13
-24 -55 -7 -82 22 -38 11 -96 -20 -104 -40 -11 -52 -6 -99 39 -59 56 -64 96
-19 146 40 43 42 57 15 107 l-23 43 -34 -33 c-20 -18 -41 -38 -49 -44 -17 -14
-129 -27 -152 -18 -28 11 -56 78 -56 134 0 48 2 51 47 84 36 26 54 33 75 29
25 -5 28 -3 28 21 0 25 -1 26 -23 11 l-23 -15 9 70 c11 78 14 80 82 41z m2875
-221 c-10 -23 -10 -22 -5 9 3 18 6 54 7 80 2 45 2 44 5 -9 2 -31 -1 -67 -7
-80z m-1353 71 c9 -11 11 -36 7 -76 -8 -84 -8 -84 -46 -76 l-33 7 3 75 c1 41
4 80 7 87 6 17 45 6 62 -17z m-677 -71 c0 -5 -2 -10 -4 -10 -3 0 -8 5 -11 10
-3 6 -1 10 4 10 6 0 11 -4 11 -10z m6589 -159 c8 -14 7 -22 -4 -31 -8 -7 -15
-19 -15 -26 0 -8 -7 -14 -15 -14 -19 0 -21 76 -2 83 21 9 26 7 36 -12z m-7579
-61 c12 -7 8 -10 -14 -10 -24 0 -27 -2 -16 -15 20 -24 -2 -42 -37 -29 -33 11
-44 50 -16 57 32 8 68 7 83 -3z m1180 -55 c0 -13 -3 -31 -7 -40 -5 -15 -8 -14
-18 6 -9 16 -10 29 -2 46 12 27 27 21 27 -12z m2145 -134 c8 -27 -26 -63 -43
-45 -15 17 -15 37 0 52 18 18 36 15 43 -7z m95 -110 c0 -24 20 -38 30 -21 5 9
9 9 14 1 10 -15 -18 -25 -49 -17 -18 5 -25 13 -25 31 0 16 6 25 15 25 8 0 15
-9 15 -19z m-773 -110 c-5 -2 -12 1 -16 6 -3 6 -16 15 -28 22 -13 6 -23 19
-23 28 0 12 3 13 14 4 11 -9 15 -8 20 6 6 14 11 10 25 -22 10 -23 14 -42 8
-44z m407 53 c8 -20 8 -24 -1 -24 -17 0 -35 19 -29 29 10 16 23 14 30 -5z
m236 -11 c0 -7 -7 -13 -15 -13 -8 0 -15 6 -15 13 0 8 7 14 15 14 8 0 15 -6 15
-14z m1628 -73 c38 -45 27 -120 -20 -135 -45 -14 -51 -13 -74 10 -16 17 -24
35 -24 60 0 68 78 111 118 65z m-5183 -80 c4 -16 3 -35 -2 -42 -4 -7 -6 -21
-5 -30 2 -12 -3 -18 -15 -18 -30 0 -58 123 -30 133 21 8 45 -12 52 -43z m6180
-59 c-8 -17 -20 -31 -25 -31 -6 0 -10 -10 -11 -22 -1 -22 -1 -22 -8 2 -12 38
-2 92 15 86 9 -3 14 1 14 13 0 29 14 34 23 7 6 -17 3 -34 -8 -55z m-608 -33
c-3 -8 -6 -5 -6 6 -1 11 2 17 5 13 3 -3 4 -12 1 -19z m463 -70 c11 -12 20 -26
20 -30 0 -5 5 -6 10 -3 6 3 10 15 10 26 0 10 3 20 8 20 48 9 54 6 47 -20 -14
-62 -77 -110 -145 -111 -43 0 -60 14 -60 51 0 30 49 89 74 89 8 0 24 -10 36
-22z m942 -164 c19 -10 42 -14 60 -10 33 7 48 -15 28 -39 -16 -20 -56 -19 -64
0 -7 19 -26 10 -68 -29 -27 -26 -68 -35 -68 -16 0 13 -48 60 -62 60 -21 0 14
30 46 39 49 14 94 12 128 -5z m-222 -24 c23 -6 22 -8 -15 -14 -68 -13 -85 -11
-85 9 0 16 54 19 100 5z m390 -61 c-26 -71 -64 -118 -81 -102 -9 9 -8 15 5 28
14 15 20 31 14 38 -2 1 8 18 22 37 61 86 73 85 40 -1z m-3317 33 c-6 -25 -33
-30 -33 -7 0 8 7 15 15 15 8 0 15 5 15 12 0 6 2 9 5 7 2 -3 2 -15 -2 -27z
m3495 -156 c4 -20 -21 -46 -45 -46 -16 0 -17 42 -1 58 17 17 42 11 46 -12z"/>
<path d="M2135 5290 c-3 -5 -2 -10 4 -10 5 0 13 5 16 10 3 6 2 10 -4 10 -5 0
-13 -4 -16 -10z"/>
<path d="M3307 4505 c-15 -14 -24 -25 -18 -25 5 0 12 -13 16 -29 3 -16 18 -39
32 -52 14 -13 23 -18 18 -10 -7 12 0 13 36 7 24 -3 40 -3 34 1 -5 5 -10 14
-11 21 -2 28 -4 33 -13 28 -5 -3 -11 3 -14 14 -3 11 -1 18 4 14 5 -3 9 -3 9 0
0 7 -53 56 -60 56 -3 0 -18 -12 -33 -25z"/>
<path d="M2690 4491 c0 -5 7 -11 15 -15 9 -3 15 0 15 9 0 8 -7 15 -15 15 -8 0
-15 -4 -15 -9z"/>
<path d="M3025 4490 c-3 -5 -1 -10 4 -10 6 0 11 5 11 10 0 6 -2 10 -4 10 -3 0
-8 -4 -11 -10z"/>
<path d="M3441 4384 c0 -11 3 -14 6 -6 3 7 2 16 -1 19 -3 4 -6 -2 -5 -13z"/>
<path d="M3380 4380 c0 -5 5 -10 10 -10 6 0 10 5 10 10 0 6 -4 10 -10 10 -5 0
-10 -4 -10 -10z"/>
<path d="M2445 4170 c-3 -5 -1 -10 4 -10 6 0 11 5 11 10 0 6 -2 10 -4 10 -3 0
-8 -4 -11 -10z"/>
<path d="M1975 4128 c-9 -22 -10 -35 -3 -39 7 -4 6 -8 -2 -11 -9 -3 -7 -9 6
-22 18 -18 18 -18 25 8 4 15 5 34 2 42 -3 8 -1 14 5 14 5 0 12 9 15 20 9 36
-32 25 -48 -12z"/>
<path d="M9650 4417 c0 -7 5 -19 11 -27 8 -11 12 -12 16 -2 2 6 12 12 21 12
11 0 13 3 6 10 -16 16 -54 21 -54 7z"/>
<path d="M8560 3744 c0 -8 5 -12 10 -9 6 3 10 10 10 16 0 5 -4 9 -10 9 -5 0
-10 -7 -10 -16z"/>
<path d="M9071 3702 c-7 -13 -1 -22 26 -40 32 -22 37 -23 71 -10 19 7 37 18
39 23 10 32 -119 57 -136 27z"/>
<path d="M8705 3610 c-3 -5 -1 -10 4 -10 6 0 11 5 11 10 0 6 -2 10 -4 10 -3 0
-8 -4 -11 -10z"/>
<path d="M9120 3485 l0 -45 40 0 40 0 0 45 0 45 -40 0 -40 0 0 -45z"/>
<path d="M3161 3014 c0 -11 3 -14 6 -6 3 7 2 16 -1 19 -3 4 -6 -2 -5 -13z"/>
<path d="M930 1375 c-10 -13 -9 -15 9 -15 12 0 21 6 21 15 0 8 -4 15 -9 15 -5
0 -14 -7 -21 -15z"/>
<path d="M5250 879 c0 -4 7 -20 15 -35 8 -16 15 -22 15 -13 0 14 -29 61 -30
48z"/>
<path d="M5230 805 c7 -9 15 -13 17 -11 7 7 -7 26 -19 26 -6 0 -6 -6 2 -15z"/>
<path d="M2015 9928 c-38 -54 -115 -179 -115 -187 0 -5 7 -15 16 -22 14 -11
21 -8 51 26 19 21 41 52 49 67 8 15 19 28 24 28 6 0 10 7 10 15 0 7 6 18 14
22 14 8 19 24 17 56 -2 25 -47 22 -66 -5z"/>
<path d="M3855 9521 c-11 -3 -27 -10 -35 -16 -35 -24 -47 -131 -13 -118 8 3
19 0 24 -8 7 -12 9 -12 9 1 0 8 13 26 29 40 30 25 34 36 32 76 -1 25 -17 33
-46 25z"/>
<path d="M8422 9504 c-1 -7 -22 -9 -56 -6 -51 4 -54 3 -80 -30 -17 -23 -26
-47 -26 -71 0 -41 -4 -44 -28 -20 -12 12 -13 18 -4 21 22 7 13 20 -10 15 -13
-4 -57 -41 -98 -83 -85 -88 -121 -110 -182 -110 -58 0 -118 -11 -118 -21 0 -5
7 -6 16 -2 13 5 15 2 9 -16 -10 -32 26 -67 89 -85 67 -20 111 -23 128 -9 7 6
22 9 33 7 60 -9 145 -7 145 5 0 5 16 25 35 46 19 21 31 43 28 49 -3 6 -3 8 2
4 4 -4 13 -1 19 8 6 8 18 16 26 18 45 9 50 17 50 77 0 33 4 59 10 59 6 0 10 8
10 18 0 10 5 23 12 30 7 7 20 12 30 12 13 0 18 8 18 28 -1 24 -2 25 -14 10
-21 -28 -34 -21 -39 20 -2 20 -4 32 -5 26z"/>
<path d="M3280 9476 c0 -29 4 -31 49 -15 34 12 42 29 14 29 -10 0 -28 3 -40 6
-20 5 -23 2 -23 -20z"/>
<path d="M7108 9489 c-22 -12 -23 -45 -3 -53 8 -3 15 -13 15 -22 0 -24 41 -53
76 -54 31 0 32 2 36 44 2 35 -2 50 -19 70 -24 28 -72 35 -105 15z"/>
<path d="M3264 9429 c-3 -6 -1 -16 5 -22 8 -8 17 -5 33 11 l22 22 -26 0 c-15
0 -30 -5 -34 -11z"/>
<path d="M10151 9424 c0 -11 3 -14 6 -6 3 7 2 16 -1 19 -3 4 -6 -2 -5 -13z"/>
<path d="M6575 9404 c-19 -15 -18 -15 15 -12 19 2 34 8 33 13 -3 16 -26 16
-48 -1z"/>
<path d="M8860 9407 c-15 -8 -24 -20 -22 -30 2 -13 -5 -17 -29 -17 -17 0 -37
6 -43 14 -6 8 -25 17 -42 21 -24 5 -33 2 -38 -11 -4 -10 -2 -21 5 -24 8 -6 8
-14 -2 -31 -19 -36 -40 -54 -48 -41 -4 7 -17 7 -44 -1 -34 -11 -37 -15 -37
-49 l0 -38 55 0 c50 0 91 -13 106 -33 3 -4 22 -10 42 -14 33 -5 37 -3 37 16 0
12 -7 24 -15 27 -10 4 -15 20 -15 45 0 33 -3 39 -22 39 -21 0 -20 1 7 30 17
17 31 26 33 20 2 -5 10 -10 18 -10 7 0 19 -9 26 -20 7 -11 21 -20 30 -20 10 0
18 -7 18 -17 0 -14 3 -14 19 4 13 14 20 38 22 75 4 78 -9 92 -61 65z m40 -118
c0 -5 -4 -9 -10 -9 -5 0 -10 7 -10 16 0 8 5 12 10 9 6 -3 10 -10 10 -16z"/>
<path d="M6540 9370 c-13 -8 -12 -10 3 -10 9 0 17 5 17 10 0 12 -1 12 -20 0z"/>
<path d="M6602 9357 l-22 -13 30 -29 c16 -16 30 -35 30 -42 0 -9 14 -13 40
-13 22 0 40 5 40 10 0 6 -9 10 -19 10 -18 0 -41 29 -57 73 -7 20 -12 20 -42 4z"/>
<path d="M9970 9363 c-8 -3 -22 -16 -32 -27 -15 -19 -15 -22 -2 -32 14 -11 73
-11 120 1 19 4 40 43 29 54 -8 7 -99 11 -115 4z"/>
<path d="M9595 9334 c-33 -7 -80 -18 -105 -24 -24 -6 -53 -9 -63 -6 -41 10
-59 -80 -32 -161 6 -19 4 -23 -14 -23 -11 0 -21 5 -21 10 0 6 -14 -3 -31 -20
-18 -16 -36 -30 -40 -30 -5 0 -9 -13 -9 -29 0 -16 -6 -31 -14 -34 -19 -8 -26
-67 -11 -98 12 -21 19 -25 52 -22 78 8 83 11 83 48 0 24 5 35 19 40 17 5 18
13 14 66 -5 46 -3 63 8 70 24 15 74 10 124 -12 33 -15 60 -20 86 -16 30 4 39
1 41 -12 3 -13 6 -12 16 7 11 18 10 26 -3 44 -8 13 -15 33 -15 45 0 13 -4 23
-9 23 -5 0 -12 23 -16 52 -6 43 -4 54 10 64 15 12 13 36 -3 33 -4 -1 -34 -7
-67 -15z m-235 -236 c0 -16 -3 -19 -11 -11 -6 6 -8 16 -5 22 11 17 16 13 16
-11z"/>
<path d="M3773 9324 c-26 -11 -33 -20 -33 -43 0 -36 22 -55 55 -47 25 6 30 22
25 71 -3 30 -12 34 -47 19z"/>
<path d="M5675 9240 c3 -5 13 -10 21 -10 8 0 12 5 9 10 -3 6 -13 10 -21 10 -8
0 -12 -4 -9 -10z"/>
<path d="M9074 9181 c-44 -47 -57 -96 -43 -163 7 -33 17 -58 24 -58 23 0 26
-71 5 -116 -11 -22 -20 -46 -20 -52 0 -15 16 -16 25 -2 3 6 15 10 26 10 14 0
19 7 19 26 0 14 4 23 9 19 6 -3 15 4 21 15 6 11 7 20 2 20 -4 0 -8 9 -8 19 0
11 3 18 7 15 10 -6 19 62 19 144 0 40 5 82 10 93 9 16 5 22 -22 39 -42 25 -41
25 -74 -9z m42 -298 c-10 -10 -19 5 -10 18 6 11 8 11 12 0 2 -7 1 -15 -2 -18z"/>
<path d="M6190 9193 c0 -5 5 -15 10 -23 8 -12 10 -11 10 8 0 12 -4 22 -10 22
-5 0 -10 -3 -10 -7z"/>
<path d="M9905 9079 c-19 -19 -19 -21 0 -55 16 -30 23 -34 57 -34 l38 0 0 -50
c0 -52 22 -110 41 -110 6 0 23 14 37 32 59 69 71 78 106 78 19 0 41 -7 50 -15
18 -18 82 -20 89 -2 4 8 14 3 31 -15 15 -17 36 -28 51 -28 25 0 25 1 25 80 0
64 -3 80 -15 80 -8 0 -15 -7 -15 -15 0 -11 -11 -15 -40 -15 -33 0 -40 3 -40
19 0 23 -72 51 -129 51 -46 0 -111 -18 -111 -30 0 -17 -28 -11 -88 20 -33 17
-62 30 -64 30 -3 0 -13 -9 -23 -21z"/>
<path d="M6258 9056 c-24 -18 -23 -25 2 -19 14 4 34 -5 60 -26 21 -17 41 -31
44 -31 14 0 4 31 -20 59 -27 33 -58 39 -86 17z"/>
<path d="M9667 9053 c-11 -10 -8 -93 3 -93 6 0 10 23 10 50 0 51 -1 55 -13 43z"/>
<path d="M3175 8972 c-34 -28 -55 -69 -55 -106 0 -19 -4 -38 -10 -41 -5 -3
-10 -28 -10 -55 0 -35 4 -50 16 -54 9 -4 18 -5 20 -4 1 2 12 37 23 78 12 41
27 80 35 85 20 15 30 89 14 102 -10 8 -18 7 -33 -5z"/>
<path d="M6190 8875 c0 -30 9 -44 50 -85 51 -51 61 -51 73 1 5 20 0 32 -26 56
-36 34 -77 63 -89 63 -5 0 -8 -16 -8 -35z"/>
<path d="M9468 8779 c-15 -10 -16 -68 -2 -108 18 -50 18 -51 -22 -96 -20 -21
-47 -61 -60 -87 -29 -58 -80 -112 -99 -104 -9 3 -18 -7 -27 -29 -6 -19 -16
-35 -20 -35 -4 0 -8 -6 -8 -14 0 -7 -7 -19 -15 -26 -8 -7 -15 -23 -15 -35 0
-17 -10 -27 -40 -39 -37 -15 -40 -19 -40 -55 0 -30 -4 -40 -20 -44 -19 -5 -29
-27 -12 -27 15 0 12 -58 -3 -73 -8 -9 -15 -24 -15 -35 0 -11 -7 -22 -15 -26
-8 -3 -15 -14 -15 -24 0 -18 -16 -26 -97 -47 -33 -9 -101 -76 -114 -112 -6
-18 -15 -30 -20 -27 -6 3 -21 -2 -35 -11 -14 -9 -38 -18 -54 -20 -34 -4 -72
-23 -83 -41 -4 -8 -19 -14 -32 -14 -14 0 -25 -4 -25 -10 0 -5 -8 -10 -18 -10
-10 0 -34 -15 -53 -32 -20 -18 -44 -38 -55 -44 -16 -9 -18 -21 -16 -63 4 -46
2 -51 -17 -51 -16 0 -21 -6 -21 -24 0 -16 -7 -27 -20 -31 -16 -5 -20 -15 -20
-55 l0 -48 72 -4 c91 -5 128 0 128 19 0 11 13 14 53 13 29 -1 72 5 97 15 38
15 54 16 100 6 46 -9 66 -8 110 5 30 9 74 18 98 21 37 4 45 2 63 -21 17 -22
29 -26 70 -26 27 0 49 4 49 8 0 4 15 14 33 22 17 7 35 15 40 18 4 2 7 -3 7
-12 0 -16 6 -17 129 -22 29 -1 47 -7 53 -18 5 -9 13 -14 18 -11 13 8 46 -11
78 -44 26 -26 30 -27 115 -23 84 3 87 4 87 28 0 23 2 24 75 24 70 0 77 2 104
30 24 25 30 42 35 98 10 99 17 132 28 132 5 0 8 -6 5 -12 -3 -7 13 -31 33 -53
28 -29 39 -50 40 -75 4 -65 0 -78 -20 -83 -12 -3 -20 -14 -20 -27 0 -11 5 -18
10 -15 6 4 10 -10 10 -35 0 -34 3 -41 16 -36 9 3 31 6 50 6 19 0 34 4 34 10 0
5 14 23 31 40 28 26 39 30 83 29 28 -1 43 -3 34 -6 -16 -4 -15 -8 9 -40 22
-28 24 -36 12 -44 -10 -6 -1 -9 28 -9 37 0 49 6 89 45 25 25 49 45 53 45 5 0
14 7 21 15 7 8 19 15 26 15 8 0 14 -7 14 -15 0 -8 -7 -15 -15 -15 -11 0 -15
-11 -15 -40 l0 -40 55 0 c42 0 55 3 55 15 0 11 11 15 40 15 36 0 40 3 40 25 0
18 5 25 20 25 19 0 20 -6 19 -97 0 -64 -3 -91 -9 -78 -7 15 -9 10 -9 -22 -1
-41 0 -43 29 -43 l30 0 -2 628 -3 627 -22 3 c-14 2 -23 10 -23 21 0 23 -29 51
-31 30 -1 -8 -1 -17 0 -21 2 -12 -14 -9 -45 7 -41 21 -112 20 -116 -2 -2 -11
-10 -2 -23 25 -11 23 -25 42 -31 42 -7 0 -34 20 -60 44 -44 39 -55 44 -114 49
-92 9 -141 25 -147 48 -3 10 -9 19 -14 19 -5 0 -9 7 -9 15 0 9 -17 23 -37 33
-21 9 -40 20 -43 24 -3 3 -43 12 -88 18 -47 6 -98 20 -115 31 -18 11 -50 19
-74 19 -24 0 -43 4 -43 9 0 5 -8 12 -17 15 -10 3 -29 13 -43 21 -14 8 -42 15
-62 15 -21 0 -38 4 -38 9 0 11 -117 19 -132 10z m152 -613 c0 -14 -4 -28 -10
-31 -6 -4 -10 7 -10 24 0 17 5 31 10 31 6 0 10 -11 10 -24z m-27 -60 c7 -16
-1 -26 -20 -26 -7 0 -13 9 -13 20 0 23 25 27 33 6z m-456 -41 c0 -8 -4 -15 -9
-15 -4 0 -8 7 -8 15 0 8 4 15 8 15 5 0 9 -7 9 -15z m1503 -50 c0 -8 4 -15 9
-15 5 0 12 -18 16 -40 5 -32 11 -40 28 -40 19 0 17 -4 -13 -35 -23 -23 -36
-31 -39 -23 -2 7 -12 19 -23 26 -30 22 -20 142 12 142 6 0 10 -7 10 -15z
m-548 -396 c-7 -10 -12 -26 -12 -34 0 -24 -37 -18 -44 8 -8 31 -7 39 3 33 5
-3 14 8 21 24 l13 31 15 -22 c12 -17 13 -26 4 -40z"/>
<path d="M9185 8616 c-9 -24 -15 -52 -13 -62 5 -26 63 -31 89 -8 20 18 27 74
9 74 -5 0 -10 6 -10 14 0 14 -21 26 -45 26 -7 0 -21 -20 -30 -44z"/>
<path d="M7308 8478 c-27 -29 -58 -69 -68 -88 -10 -19 -27 -44 -37 -55 -22
-23 -45 -83 -38 -96 3 -4 -3 -17 -15 -29 -11 -11 -20 -27 -20 -35 0 -8 -6 -15
-13 -15 -8 0 -19 -19 -26 -42 -12 -37 -11 -43 5 -55 15 -11 22 -10 43 10 14
13 38 31 54 40 15 10 27 26 27 36 0 24 30 82 50 97 8 7 26 21 39 33 13 12 29
21 35 21 11 0 19 12 50 77 9 17 20 34 26 38 6 3 17 20 26 37 14 27 14 30 1 25
-10 -4 -13 0 -10 13 6 21 0 25 -45 35 -31 6 -37 3 -84 -47z"/>
<path d="M1722 8491 c-11 -7 -10 -10 3 -15 26 -10 35 -7 35 9 0 17 -18 19 -38
6z"/>
<path d="M1640 8445 c-13 -8 -28 -22 -31 -32 -7 -15 -8 -15 -8 5 -1 27 2 26
-47 2 -32 -16 -35 -19 -16 -20 14 0 21 -4 16 -11 -3 -6 -14 -9 -24 -6 -22 6
-51 -12 -32 -20 21 -8 13 -21 -23 -34 -19 -7 -35 -17 -35 -21 0 -4 -8 -8 -17
-8 -29 -1 -63 -36 -63 -64 0 -34 39 -60 78 -51 35 7 82 57 82 86 0 39 31 76
84 98 44 20 48 24 31 32 -16 7 -15 8 10 5 21 -2 35 4 47 20 10 12 18 25 18 28
0 11 -44 4 -70 -9z"/>
<path d="M3680 8378 l0 -62 41 39 c30 31 36 41 24 43 -9 2 -14 10 -11 17 4 11
-20 24 -46 25 -5 0 -8 -28 -8 -62z"/>
<path d="M8698 8433 c7 -3 16 -2 19 1 4 3 -2 6 -13 5 -11 0 -14 -3 -6 -6z"/>
<path d="M8605 8389 c-22 -5 -50 -11 -61 -14 -13 -3 -21 -12 -20 -22 0 -10 -9
-22 -21 -28 -30 -13 -29 -18 12 -58 27 -26 35 -42 35 -70 0 -19 -6 -37 -12
-40 -10 -3 -9 -9 4 -22 14 -15 20 -16 32 -5 20 16 20 30 1 30 -10 0 -15 10
-15 34 0 19 -3 41 -6 50 -4 10 6 23 30 38 20 13 34 29 31 36 -3 7 2 15 10 18
8 4 15 12 15 19 0 7 7 15 15 19 18 7 20 26 3 25 -7 -1 -31 -5 -53 -10z"/>
<path d="M4694 8368 c-4 -13 -7 -29 -6 -35 2 -7 -4 -13 -12 -13 -9 0 -15 -14
-18 -44 l-3 -45 35 4 c19 2 42 3 50 4 22 1 40 70 26 100 -6 15 -16 21 -28 18
-13 -4 -18 0 -18 14 0 26 -17 24 -26 -3z"/>
<path d="M8310 8297 c-36 -17 -66 -38 -66 -44 -1 -7 -2 -19 -3 -27 -1 -15 -50
-38 -84 -40 -17 -1 -25 -12 -39 -56 -9 -30 -17 -72 -17 -92 -1 -41 -13 -47
-45 -23 -11 8 -31 15 -46 15 -27 0 -81 -43 -93 -73 -3 -9 -11 -17 -17 -17 -5
0 -10 -4 -10 -10 0 -5 7 -10 16 -10 14 0 14 -3 4 -15 -7 -9 -13 -32 -12 -52 1
-34 1 -35 -33 -31 -30 3 -36 0 -52 -29 -16 -31 -16 -34 1 -70 11 -22 21 -32
23 -25 8 21 53 62 68 62 15 0 21 33 16 93 -2 25 1 27 33 27 38 0 86 18 86 32
0 4 6 8 14 8 8 0 17 6 19 13 4 10 6 10 6 0 1 -7 6 -13 12 -13 5 0 8 4 4 9 -10
17 35 33 75 26 34 -6 40 -4 51 17 6 13 18 27 25 31 8 4 14 25 14 46 0 41 17
101 29 101 4 0 12 -5 19 -12 9 -9 12 -8 12 5 0 9 7 17 15 17 8 0 15 5 15 10 0
6 11 16 25 22 14 6 25 19 25 30 0 10 7 18 15 18 9 0 15 9 15 25 0 14 5 25 10
25 6 0 10 7 10 15 0 8 -8 15 -17 15 -10 0 -27 2 -38 5 -11 3 -49 -10 -85 -28z"/>
<path d="M6460 8310 c0 -5 5 -10 10 -10 6 0 10 5 10 10 0 6 -4 10 -10 10 -5 0
-10 -4 -10 -10z"/>
<path d="M1806 8115 c-11 -8 -16 -15 -12 -15 5 0 4 -6 -2 -13 -16 -19 8 -87
30 -87 11 0 18 -8 18 -19 0 -21 26 -36 35 -20 4 5 9 34 12 63 5 49 3 57 -20
80 -30 30 -35 31 -61 11z"/>
<path d="M1309 8033 c-3 -21 4 -59 12 -67 12 -13 36 20 34 48 -1 13 -9 22 -23
24 -12 2 -22 0 -23 -5z"/>
<path d="M8370 8024 c-11 -13 -10 -19 8 -37 l22 -21 0 37 c0 40 -10 46 -30 21z"/>
<path d="M8221 7839 c-42 -17 -52 -39 -46 -98 4 -38 12 -60 27 -73 24 -20 38
-23 38 -7 0 6 7 17 15 25 8 9 15 25 16 37 1 44 5 72 13 95 4 13 3 22 -3 22 -5
0 -15 2 -23 4 -7 3 -24 0 -37 -5z"/>
<path d="M8524 7775 c-24 -36 -29 -95 -9 -95 9 0 18 8 21 18 3 9 10 25 15 34
12 23 12 68 -1 68 -5 0 -17 -11 -26 -25z"/>
<path d="M1968 7783 c6 -2 18 -2 25 0 6 3 1 5 -13 5 -14 0 -19 -2 -12 -5z"/>
<path d="M1889 7755 c-13 -13 -29 -25 -35 -25 -12 0 -54 -34 -54 -44 0 -3 9
-6 19 -6 11 0 21 -5 23 -10 2 -6 27 -13 56 -15 41 -4 54 -2 58 10 3 8 12 15
19 15 10 0 28 67 21 77 -1 1 -17 5 -35 8 -19 3 -38 8 -42 10 -4 3 -18 -6 -30
-20z"/>
<path d="M7602 7618 c2 -13 9 -22 15 -21 6 1 18 -16 27 -38 20 -49 46 -49 60
0 8 27 7 36 -7 46 -9 7 -17 17 -17 24 0 6 -17 11 -41 11 -36 0 -40 -2 -37 -22z"/>
<path d="M3500 7616 c0 -8 5 -18 10 -21 6 -3 10 3 10 14 0 12 -4 21 -10 21 -5
0 -10 -6 -10 -14z"/>
<path d="M10080 7180 c0 -23 10 -26 28 -8 18 18 15 28 -8 28 -13 0 -20 -7 -20
-20z"/>
<path d="M10743 7003 c-15 -3 -23 -12 -23 -24 0 -10 -7 -19 -15 -19 -8 0 -26
-12 -40 -26 -23 -23 -32 -26 -77 -22 -41 4 -52 2 -61 -13 -7 -11 -22 -19 -35
-19 -13 0 -38 -14 -55 -31 -17 -18 -33 -27 -35 -20 -2 7 -32 11 -80 11 -94 0
-162 -27 -162 -66 0 -21 -4 -24 -40 -24 -22 0 -40 4 -40 10 0 6 -23 7 -60 3
-40 -4 -60 -2 -60 5 0 6 6 13 13 15 6 3 -4 6 -23 7 -23 1 -29 4 -18 8 15 6 15
9 -2 30 -11 13 -29 22 -45 22 -39 0 -125 -32 -125 -47 0 -8 -14 -13 -36 -13
-19 0 -42 -6 -49 -12 -35 -32 -45 -38 -60 -38 -9 0 -15 -9 -15 -25 0 -22 -4
-25 -40 -25 -37 0 -40 -2 -40 -28 0 -27 2 -29 40 -27 l40 2 0 -39 0 -38 80 0
c79 0 80 0 80 -25 l0 -25 118 0 c194 0 362 12 362 25 0 13 83 35 131 35 19 0
29 5 29 15 0 11 11 15 40 15 27 0 40 4 40 14 0 9 20 15 61 20 102 10 99 11 99
-34 0 -29 -4 -40 -15 -40 -11 0 -15 -11 -15 -40 0 -36 -2 -40 -25 -40 -14 0
-25 -4 -25 -10 0 -15 58 -12 62 2 3 9 10 8 23 -5 10 -10 21 -15 24 -10 3 4 11
9 16 10 6 1 19 5 29 9 12 5 17 4 13 -3 -3 -5 0 -10 8 -10 8 0 12 4 9 9 -3 4 0
8 5 8 6 0 11 -4 11 -10 0 -5 9 -10 20 -10 20 0 20 7 20 275 0 302 5 280 -57
268z"/>
<path d="M10480 4756 c0 -55 3 -64 20 -69 12 -3 20 -14 20 -26 0 -14 6 -21 20
-21 11 0 20 -7 20 -15 0 -8 9 -15 20 -15 11 0 23 7 26 15 4 8 12 15 20 15 18
0 17 10 -1 34 -19 25 -19 46 0 46 8 0 15 7 15 15 0 8 -5 15 -10 15 -6 0 -16
11 -22 25 -6 14 -19 25 -30 25 -10 0 -18 5 -18 10 0 6 -18 10 -40 10 l-40 0 0
-64z"/>
<path d="M10767 4284 c-6 -37 4 -77 22 -89 7 -4 11 16 11 59 0 49 -3 66 -14
66 -8 0 -16 -15 -19 -36z"/>
<path d="M9520 3025 l0 -36 49 2 c43 2 50 5 54 27 4 22 2 23 -28 18 -23 -5
-38 -2 -48 9 -23 22 -27 19 -27 -20z"/>
<path d="M9790 2360 c0 -5 5 -10 10 -10 6 0 10 5 10 10 0 6 -4 10 -10 10 -5 0
-10 -4 -10 -10z"/>
<path d="M10578 2248 c-7 -20 3 -88 13 -88 12 0 49 -37 49 -49 0 -16 84 16 98
37 14 21 13 22 -12 22 -18 0 -30 8 -41 30 -9 17 -24 30 -34 30 -10 0 -24 7
-31 15 -15 18 -36 19 -42 3z"/>
<path d="M9746 2193 c-4 -5 -42 -10 -83 -13 -58 -4 -79 -9 -87 -23 -13 -21 5
-37 44 -37 14 0 41 -9 61 -19 24 -13 59 -20 100 -21 90 -2 89 -3 89 25 0 18
-5 25 -20 25 -12 0 -29 14 -42 35 -22 33 -46 44 -62 28z"/>
<path d="M9637 1953 c-11 -10 -8 -18 15 -42 20 -22 22 -23 34 -6 22 30 -23 75
-49 48z"/>
<path d="M10555 1823 c-16 -8 -40 -24 -52 -35 -20 -19 -21 -22 -7 -43 19 -30
14 -65 -14 -95 -21 -22 -30 -50 -16 -50 4 0 17 11 30 25 14 15 34 25 52 25 15
0 37 7 48 15 10 8 31 15 45 15 40 0 52 22 44 75 -5 37 -12 50 -38 66 -38 23
-53 23 -92 2z"/>
<path d="M9595 1749 c-16 -30 -12 -56 4 -30 6 9 10 2 14 -20 2 -19 0 -40 -5
-46 -7 -9 -5 -15 6 -19 34 -13 46 3 46 60 0 30 -3 61 -6 70 -10 27 -42 18 -59
-15z"/>
<path d="M9330 1625 c0 -7 6 -18 14 -22 8 -4 15 -17 17 -28 5 -25 54 -43 77
-29 9 6 19 23 23 38 7 25 4 29 -26 42 -46 19 -105 19 -105 -1z"/>
<path d="M9320 1590 c0 -5 5 -10 10 -10 6 0 10 5 10 10 0 6 -4 10 -10 10 -5 0
-10 -4 -10 -10z"/>
<path d="M10695 1591 c-21 -4 -31 -13 -33 -29 -2 -13 -10 -22 -21 -22 -9 0
-21 -4 -26 -9 -10 -9 -43 -14 -77 -12 -10 1 -20 12 -23 24 -7 25 -35 33 -35
10 0 -7 -9 -22 -20 -33 -16 -16 -25 -18 -45 -10 -36 14 -38 13 -54 -12 -50
-80 -28 -202 73 -407 54 -111 59 -117 104 -139 33 -17 42 -28 79 -107 46 -96
105 -199 121 -211 15 -11 20 -8 39 29 21 40 22 54 23 290 0 213 -2 247 -15
247 -8 0 -15 -5 -15 -10 0 -17 -43 -28 -67 -17 -13 5 -26 19 -29 31 -8 25 -7
129 1 155 7 23 46 41 90 41 l35 0 0 60 c0 47 -3 60 -15 60 -8 0 -15 8 -15 18
0 31 -41 59 -75 53z"/>
<path d="M9895 1439 c-16 -5 -47 -23 -68 -40 -41 -34 -43 -48 -22 -129 5 -18
1 -33 -12 -49 -17 -20 -25 -23 -56 -17 -21 4 -53 21 -72 37 -30 26 -39 29 -72
23 -25 -4 -47 -18 -65 -38 -26 -31 -27 -31 -55 -14 -15 9 -35 30 -43 47 -17
34 -28 37 -56 16 -10 -8 -26 -15 -34 -15 -8 0 -33 -9 -55 -20 -22 -11 -45 -19
-51 -20 -6 0 -17 -12 -24 -26 -11 -20 -12 -29 -1 -45 9 -15 10 -43 6 -97 -5
-59 -3 -86 9 -114 20 -48 20 -56 -4 -96 -20 -32 -20 -33 -44 -15 -13 10 -27
30 -30 46 -3 16 -15 31 -28 36 -13 5 -32 18 -42 30 -11 11 -27 21 -38 21 -18
0 -26 25 -9 32 16 6 22 73 8 92 -14 18 -15 18 -45 0 -18 -10 -32 -21 -32 -24
0 -4 -27 -4 -59 -2 -53 4 -66 1 -110 -26 -27 -17 -67 -36 -90 -43 -26 -8 -59
-30 -89 -61 -26 -26 -50 -48 -54 -48 -4 0 -44 -22 -90 -50 -46 -27 -88 -50
-94 -50 -6 0 -29 -18 -50 -40 -22 -22 -44 -40 -49 -40 -12 0 -93 -56 -119 -83
-20 -20 -17 -54 5 -48 8 2 43 7 79 11 36 5 83 13 105 19 55 14 150 3 171 -20
15 -17 15 -19 2 -19 -24 0 -29 -25 -12 -59 14 -28 14 -34 -2 -68 -10 -21 -26
-44 -36 -51 -28 -21 -21 -40 22 -62 51 -26 115 -26 137 -1 9 11 20 18 25 15 4
-3 8 -1 8 5 0 5 9 13 20 16 11 4 18 10 15 15 -3 5 2 15 10 23 8 9 15 21 15 28
0 21 50 59 78 59 16 0 32 8 40 20 7 11 17 20 23 20 17 0 40 -28 48 -58 5 -18
17 -30 37 -36 68 -20 74 -27 74 -74 0 -67 19 -112 47 -112 34 0 28 -27 -9 -47
-49 -26 -164 -23 -211 6 -19 11 -46 21 -60 21 -14 0 -29 5 -32 10 -12 20 -45
10 -55 -15 -5 -14 -23 -53 -40 -86 -16 -34 -30 -76 -30 -95 l0 -34 343 0 c303
1 340 2 323 15 -11 8 -34 15 -50 16 -69 2 -88 5 -97 19 -22 34 -20 58 6 98 30
45 31 89 3 84 -15 -2 -17 3 -12 42 4 37 2 45 -13 48 -15 4 -14 6 7 16 34 16
136 30 151 21 7 -4 12 -24 11 -44 -1 -21 3 -46 8 -56 9 -15 15 -16 43 -7 44
15 87 46 87 63 0 8 9 19 20 25 11 6 23 22 26 35 7 27 11 28 100 25 56 -1 62 1
78 25 9 14 18 38 19 53 l3 27 84 -3 c75 -3 92 0 142 23 32 14 66 37 77 51 10
13 24 24 30 24 17 0 43 47 39 72 -2 13 4 28 12 35 13 11 13 12 -2 13 -18 0
-26 30 -8 30 13 0 28 -32 23 -48 -9 -25 80 -1 132 36 80 56 81 58 74 121 -4
31 -12 83 -19 116 -7 33 -14 70 -16 81 -2 12 -28 38 -60 60 l-56 39 5 62 c3
47 1 63 -8 63 -7 0 -15 -7 -19 -15 -4 -11 -21 -15 -64 -15 -64 0 -74 -8 -87
-77 -7 -37 -12 -39 -43 -17 -18 12 -22 25 -22 65 0 33 5 51 14 55 7 3 21 22
31 43 14 31 15 45 6 79 -14 49 -17 52 -56 41z m-415 -378 c0 -9 -9 -22 -19
-28 -17 -11 -19 -8 -23 21 -3 29 -1 32 19 28 13 -2 23 -12 23 -21z m210 -493
c0 -38 -25 -56 -46 -35 -4 4 -15 7 -24 7 -10 0 -23 7 -30 15 -10 12 -6 16 22
24 58 16 78 14 78 -11z m-250 -128 c0 -14 -7 -20 -24 -20 -61 0 -76 27 -18 33
20 2 38 4 40 5 1 1 2 -7 2 -18z"/>
<path d="M10307 747 c-23 -22 -33 -38 -26 -42 7 -5 2 -17 -13 -34 -13 -14 -30
-38 -38 -53 -7 -15 -21 -30 -32 -34 -10 -3 -18 -10 -18 -15 0 -5 -11 -9 -25
-9 -20 0 -26 -7 -34 -37 -18 -67 -77 -110 -198 -148 -23 -7 -57 -23 -75 -35
-45 -31 -137 -130 -144 -155 -3 -12 -29 -33 -61 -50 -90 -49 -107 -88 -43
-105 21 -6 42 -15 45 -20 4 -6 121 -10 301 -10 l294 0 0 24 c0 18 7 26 27 31
15 3 30 10 33 14 3 4 28 5 55 2 48 -6 50 -8 53 -38 l3 -33 195 0 194 0 0 120
c0 96 -3 120 -14 120 -30 0 -34 53 -6 77 15 13 20 30 20 64 0 46 0 47 -40 57
-32 8 -49 7 -81 -6 l-40 -15 -32 31 c-29 29 -32 38 -30 86 2 42 -4 66 -27 115
-17 34 -30 65 -30 69 0 5 -11 19 -25 32 -20 19 -40 25 -88 28 -60 4 -64 3
-100 -31z m237 -482 c5 -17 0 -23 -29 -34 -29 -10 -37 -10 -48 1 -42 42 -44
102 -5 145 l21 22 27 -57 c15 -31 30 -66 34 -77z m-262 40 c4 -17 13 -34 20
-40 30 -23 50 -106 29 -120 -11 -6 -137 -8 -166 -2 -11 3 -19 9 -18 15 2 6
-13 14 -31 18 -27 4 -37 13 -46 37 -7 18 -18 44 -26 59 -14 26 -13 28 13 41
36 17 66 11 78 -15 15 -33 30 -32 56 6 19 29 30 35 53 33 24 -2 31 -9 38 -32z
m-355 -177 c-3 -7 -5 -2 -5 12 0 14 2 19 5 13 2 -7 2 -19 0 -25z"/>
<path d="M7913 700 c-32 -13 -28 -30 6 -30 39 0 61 9 61 26 0 16 -33 18 -67 4z"/>
<path d="M8857 326 c-16 -13 -16 -15 -2 -30 14 -14 17 -14 34 2 12 12 15 21 8
30 -12 15 -17 15 -40 -2z"/>
<path d="M10328 3 c6 -2 18 -2 25 0 6 3 1 5 -13 5 -14 0 -19 -2 -12 -5z"/>
</g>
</svg>
